<svg width="1440" height="232" viewBox="0 0 1440 232" fill="none" xmlns="http://www.w3.org/2000/svg">
<g clip-path="url(#clip0_357_712)">
<path opacity="0.05" d="M71.8 81.4H72.8V80.4H71.8V81.4ZM71.8 108V109H72.8V108H71.8ZM30 108V107H29V108H30ZM30 220V221H31V220H30ZM-1.2 220H-2.2V221H-1.2V220ZM-1.2 108H-0.199997V107H-1.2V108ZM-43 108H-44V109H-43V108ZM-43 81.4V80.4H-44V81.4H-43ZM70.8 81.4V108H72.8V81.4H70.8ZM71.8 107H30V109H71.8V107ZM29 108V220H31V108H29ZM30 219H-1.2V221H30V219ZM-0.199997 220V108H-2.2V220H-0.199997ZM-1.2 107H-43V109H-1.2V107ZM-42 108V81.4H-44V108H-42ZM-43 82.4H71.8V80.4H-43V82.4ZM91.8516 220H90.8516V221H91.8516V220ZM91.8516 81.4V80.4H90.8516V81.4H91.8516ZM185.452 81.4H186.452V80.4H185.452V81.4ZM185.452 107.6V108.6H186.452V107.6H185.452ZM123.052 107.6V106.6H122.052V107.6H123.052ZM123.052 134.8H122.052V135.8H123.052V134.8ZM178.452 134.8H179.452V133.8H178.452V134.8ZM178.452 160.4V161.4H179.452V160.4H178.452ZM123.052 160.4V159.4H122.052V160.4H123.052ZM123.052 193.8H122.052V194.8H123.052V193.8ZM190.052 193.8H191.052V192.8H190.052V193.8ZM190.052 220V221H191.052V220H190.052ZM92.8516 220V81.4H90.8516V220H92.8516ZM91.8516 82.4H185.452V80.4H91.8516V82.4ZM184.452 81.4V107.6H186.452V81.4H184.452ZM185.452 106.6H123.052V108.6H185.452V106.6ZM122.052 107.6V134.8H124.052V107.6H122.052ZM123.052 135.8H178.452V133.8H123.052V135.8ZM177.452 134.8V160.4H179.452V134.8H177.452ZM178.452 159.4H123.052V161.4H178.452V159.4ZM122.052 160.4V193.8H124.052V160.4H122.052ZM123.052 194.8H190.052V192.8H123.052V194.8ZM189.052 193.8V220H191.052V193.8H189.052ZM190.052 219H91.8516V221H190.052V219ZM306.141 220L305.269 220.491L305.556 221H306.141V220ZM277.141 173L276.311 173.558L276.311 173.558L277.141 173ZM243.941 129.2L244.701 128.55L242.941 126.49V129.2H243.941ZM243.941 220V221H244.941V220H243.941ZM213.141 220H212.141V221H213.141V220ZM213.141 81.4V80.4H212.141V81.4H213.141ZM238.541 81.4L239.248 80.6929L238.955 80.4H238.541V81.4ZM253.141 97.6L253.909 96.9598L253.909 96.9598L253.141 97.6ZM269.341 118.2L268.539 118.798L268.545 118.806L268.551 118.814L269.341 118.2ZM285.941 140.8L285.119 141.371L285.124 141.377L285.941 140.8ZM301.341 163.2L300.509 163.755L302.341 166.503V163.2H301.341ZM301.341 81.4V80.4H300.341V81.4H301.341ZM332.341 81.4H333.341V80.4H332.341V81.4ZM332.341 220V221H333.341V220H332.341ZM307.012 219.509C298.065 203.619 288.385 187.93 277.97 172.442L276.311 173.558C286.696 189.003 296.349 204.647 305.269 220.491L307.012 219.509ZM277.97 172.442C267.55 156.945 256.46 142.314 244.701 128.55L243.18 129.85C254.888 143.553 265.932 158.122 276.311 173.558L277.97 172.442ZM242.941 129.2V220H244.941V129.2H242.941ZM243.941 219H213.141V221H243.941V219ZM214.141 220V81.4H212.141V220H214.141ZM213.141 82.4H238.541V80.4H213.141V82.4ZM237.834 82.1071C242.206 86.48 247.052 91.8562 252.372 98.2402L253.909 96.9598C248.562 90.5438 243.675 85.12 239.248 80.6929L237.834 82.1071ZM252.372 98.2402C257.693 104.625 263.082 111.477 268.539 118.798L270.142 117.602C264.666 110.256 259.255 103.375 253.909 96.9598L252.372 98.2402ZM268.551 118.814C274.14 125.999 279.662 133.518 285.119 141.371L286.762 140.229C281.285 132.349 275.742 124.801 270.13 117.586L268.551 118.814ZM285.124 141.377C290.586 149.104 295.714 156.563 300.509 163.755L302.173 162.645C297.367 155.437 292.229 147.963 286.757 140.223L285.124 141.377ZM302.341 163.2V81.4H300.341V163.2H302.341ZM301.341 82.4H332.341V80.4H301.341V82.4ZM331.341 81.4V220H333.341V81.4H331.341ZM332.341 219H306.141V221H332.341V219ZM467.113 81.4H468.113V80.4H467.113V81.4ZM467.113 108V109H468.113V108H467.113ZM425.313 108V107H424.313V108H425.313ZM425.313 220V221H426.313V220H425.313ZM394.113 220H393.113V221H394.113V220ZM394.113 108H395.113V107H394.113V108ZM352.313 108H351.313V109H352.313V108ZM352.313 81.4V80.4H351.313V81.4H352.313ZM466.113 81.4V108H468.113V81.4H466.113ZM467.113 107H425.313V109H467.113V107ZM424.313 108V220H426.313V108H424.313ZM425.313 219H394.113V221H425.313V219ZM395.113 220V108H393.113V220H395.113ZM394.113 107H352.313V109H394.113V107ZM353.313 108V81.4H351.313V108H353.313ZM352.313 82.4H467.113V80.4H352.313V82.4ZM563.558 220L562.601 220.292L562.818 221H563.558V220ZM558.558 205.2L557.612 205.524L557.615 205.535L557.619 205.546L558.558 205.2ZM553.358 190L554.304 189.676L554.073 189H553.358V190ZM499.358 190V189H498.643L498.412 189.676L499.358 190ZM493.958 205.2L493.019 204.854L493.015 204.865L493.012 204.876L493.958 205.2ZM489.158 220V221H489.898L490.114 220.292L489.158 220ZM456.758 220L455.813 219.671L455.351 221H456.758V220ZM471.558 178.6L472.496 178.946L472.496 178.946L471.558 178.6ZM485.158 142.8L484.231 142.425L484.227 142.434L485.158 142.8ZM498.358 111L497.441 110.602L497.438 110.608L498.358 111ZM511.958 81.4V80.4H511.332L511.058 80.9628L511.958 81.4ZM541.758 81.4L542.662 80.973L542.391 80.4H541.758V81.4ZM555.158 111L554.241 111.398L554.243 111.403L555.158 111ZM568.358 142.8L567.427 143.166L567.431 143.175L568.358 142.8ZM582.158 178.6L581.219 178.946L581.219 178.946L582.158 178.6ZM596.958 220V221H598.365L597.902 219.671L596.958 220ZM526.158 112.8L527.086 112.429L526.072 109.894L525.209 112.484L526.158 112.8ZM523.158 121L522.224 120.641L522.224 120.641L523.158 121ZM518.558 133L517.624 132.643L517.624 132.643L518.558 133ZM512.758 148L511.826 147.636L511.822 147.646L511.819 147.656L512.758 148ZM506.558 165.2L505.616 164.865L505.141 166.2H506.558V165.2ZM545.958 165.2V166.2H547.375L546.9 164.865L545.958 165.2ZM539.758 148L538.819 148.344L538.819 148.344L539.758 148ZM533.958 133L533.024 133.357L533.028 133.369L533.033 133.381L533.958 133ZM529.358 121L530.291 120.641L530.291 120.641L529.358 121ZM564.514 219.708C563.042 214.888 561.369 209.937 559.496 204.854L557.619 205.546C559.48 210.596 561.141 215.512 562.601 220.292L564.514 219.708ZM559.504 204.876C559.494 204.848 559.473 204.785 559.463 204.758C559.454 204.73 559.432 204.667 559.423 204.639C559.413 204.611 559.392 204.548 559.382 204.52C559.373 204.492 559.351 204.429 559.341 204.401C559.332 204.373 559.31 204.31 559.301 204.283C559.297 204.273 559.294 204.263 559.291 204.253C559.287 204.243 559.284 204.233 559.281 204.223C559.277 204.213 559.274 204.203 559.27 204.193C559.267 204.184 559.264 204.174 559.26 204.164C559.223 204.055 559.216 204.035 559.179 203.926C559.136 203.799 559.141 203.816 559.098 203.689C559.056 203.566 559.059 203.575 559.016 203.451C558.976 203.332 558.976 203.333 558.935 203.214C558.894 203.095 558.895 203.096 558.854 202.976C558.813 202.857 558.814 202.858 558.773 202.739C558.732 202.62 558.732 202.621 558.691 202.501C558.651 202.382 558.651 202.383 558.61 202.264C558.569 202.145 558.57 202.146 558.529 202.026C558.488 201.907 558.489 201.908 558.448 201.789C558.407 201.67 558.407 201.671 558.366 201.551C558.326 201.432 558.326 201.433 558.285 201.314C558.244 201.195 558.245 201.196 558.204 201.076C558.163 200.957 558.164 200.958 558.123 200.839C558.082 200.72 558.082 200.721 558.041 200.601C558.001 200.482 558.001 200.483 557.96 200.364C557.919 200.245 557.92 200.246 557.879 200.126C557.838 200.007 557.839 200.008 557.798 199.889C557.757 199.77 557.757 199.771 557.716 199.651C557.676 199.532 557.676 199.533 557.635 199.414C557.594 199.295 557.595 199.296 557.554 199.176C557.513 199.057 557.514 199.058 557.473 198.939C557.432 198.82 557.432 198.821 557.391 198.701C557.351 198.582 557.351 198.583 557.31 198.464C557.269 198.345 557.27 198.346 557.229 198.226C557.188 198.107 557.189 198.108 557.148 197.989C557.107 197.87 557.107 197.871 557.066 197.751C557.026 197.632 557.026 197.633 556.985 197.514C556.944 197.395 556.945 197.396 556.904 197.276C556.895 197.249 556.893 197.244 556.884 197.217C556.874 197.189 556.873 197.185 556.863 197.158C556.854 197.13 556.852 197.126 556.843 197.098C556.834 197.071 556.832 197.066 556.823 197.039C556.813 197.011 556.812 197.007 556.802 196.979C556.793 196.952 556.792 196.948 556.782 196.92C556.773 196.893 556.771 196.888 556.762 196.861C556.752 196.833 556.751 196.829 556.741 196.801C556.732 196.774 556.731 196.769 556.721 196.742C556.712 196.714 556.71 196.71 556.701 196.683C556.691 196.655 556.69 196.651 556.681 196.623C556.671 196.596 556.67 196.591 556.66 196.564C556.651 196.536 556.649 196.532 556.64 196.504C556.631 196.477 556.629 196.473 556.62 196.445C556.61 196.418 556.609 196.413 556.599 196.386C556.59 196.358 556.588 196.354 556.579 196.326C556.57 196.299 556.568 196.294 556.559 196.267C556.549 196.239 556.548 196.235 556.538 196.208C556.529 196.18 556.527 196.176 556.518 196.148C556.509 196.121 556.507 196.116 556.498 196.089C556.488 196.061 556.487 196.057 556.477 196.029C556.468 196.002 556.467 195.998 556.457 195.97C556.448 195.943 556.446 195.938 556.437 195.911C556.427 195.883 556.426 195.879 556.416 195.851C556.407 195.824 556.406 195.819 556.396 195.792C556.387 195.764 556.385 195.76 556.376 195.733C556.366 195.705 556.365 195.701 556.356 195.673C556.346 195.646 556.345 195.641 556.335 195.614C556.326 195.586 556.324 195.582 556.315 195.554C556.306 195.527 556.304 195.523 556.295 195.495C556.285 195.468 556.284 195.463 556.274 195.436C556.265 195.408 556.263 195.404 556.254 195.376C556.245 195.349 556.243 195.344 556.234 195.317C556.224 195.289 556.223 195.285 556.213 195.258C556.204 195.23 556.202 195.226 556.193 195.198C556.184 195.171 556.182 195.166 556.173 195.139C556.163 195.111 556.162 195.107 556.152 195.079C556.143 195.052 556.142 195.048 556.132 195.02C556.123 194.993 556.121 194.988 556.112 194.961C556.102 194.933 556.101 194.929 556.091 194.901C556.082 194.874 556.081 194.869 556.071 194.842C556.062 194.814 556.06 194.81 556.051 194.783C556.041 194.755 556.04 194.751 556.031 194.723C556.021 194.696 556.02 194.691 556.01 194.664C556.001 194.636 555.999 194.632 555.99 194.604C555.981 194.577 555.979 194.573 555.97 194.545C555.96 194.518 555.959 194.513 555.949 194.486C555.94 194.458 555.938 194.454 555.929 194.426C555.92 194.399 555.918 194.394 555.909 194.367C555.899 194.339 555.898 194.335 555.888 194.308C555.879 194.28 555.877 194.276 555.868 194.248C555.859 194.221 555.857 194.216 555.848 194.189C555.838 194.161 555.837 194.157 555.827 194.129C555.818 194.102 555.817 194.098 555.807 194.07C555.798 194.043 555.796 194.038 555.787 194.011C555.777 193.983 555.776 193.979 555.766 193.951C555.757 193.924 555.756 193.919 555.746 193.892C555.737 193.864 555.735 193.86 555.726 193.833C555.716 193.805 555.715 193.801 555.706 193.773C555.696 193.746 555.695 193.741 555.685 193.714C555.676 193.686 555.674 193.682 555.665 193.654C555.656 193.627 555.654 193.623 555.645 193.595C555.635 193.568 555.634 193.563 555.624 193.536C555.615 193.508 555.613 193.504 555.604 193.476C555.595 193.449 555.593 193.444 555.584 193.417C555.574 193.389 555.573 193.385 555.563 193.358C555.554 193.33 555.552 193.326 555.543 193.298C555.534 193.271 555.532 193.266 555.523 193.239C555.513 193.211 555.512 193.207 555.502 193.179C555.493 193.152 555.492 193.148 555.482 193.12C555.473 193.093 555.471 193.088 555.462 193.061C555.452 193.033 555.451 193.029 555.441 193.001C555.432 192.974 555.431 192.969 555.421 192.942C555.412 192.914 555.41 192.91 555.401 192.883C555.391 192.855 555.39 192.851 555.381 192.823C555.371 192.796 555.37 192.791 555.36 192.764C555.351 192.736 555.349 192.732 555.34 192.704C555.331 192.677 555.329 192.673 555.32 192.645C555.31 192.618 555.309 192.613 555.299 192.586C555.29 192.558 555.288 192.554 555.279 192.526C555.27 192.499 555.268 192.494 555.259 192.467C555.249 192.439 555.248 192.435 555.238 192.408C555.229 192.38 555.227 192.376 555.218 192.348C555.209 192.321 555.207 192.316 555.198 192.289C555.188 192.261 555.187 192.257 555.177 192.229C555.168 192.202 555.167 192.198 555.157 192.17C555.148 192.143 555.146 192.138 555.137 192.111C555.127 192.083 555.126 192.079 555.116 192.051C555.107 192.024 555.106 192.019 555.096 191.992C555.087 191.964 555.085 191.96 555.076 191.933C555.066 191.905 555.065 191.901 555.056 191.873C555.046 191.846 555.045 191.841 555.035 191.814C555.026 191.786 555.024 191.782 555.015 191.754C555.006 191.727 555.004 191.723 554.995 191.695C554.985 191.668 554.984 191.663 554.974 191.636C554.965 191.608 554.963 191.604 554.954 191.576C554.945 191.549 554.943 191.544 554.934 191.517C554.924 191.489 554.923 191.485 554.913 191.458C554.904 191.43 554.902 191.426 554.893 191.398C554.884 191.371 554.882 191.366 554.873 191.339C554.863 191.311 554.862 191.307 554.852 191.279C554.843 191.252 554.842 191.248 554.832 191.22C554.823 191.193 554.821 191.188 554.812 191.161C554.802 191.133 554.801 191.129 554.791 191.101C554.782 191.074 554.781 191.069 554.771 191.042C554.762 191.014 554.76 191.01 554.751 190.983C554.741 190.955 554.74 190.951 554.731 190.923C554.721 190.896 554.72 190.891 554.71 190.864C554.701 190.836 554.699 190.832 554.69 190.804C554.681 190.777 554.679 190.773 554.67 190.745C554.66 190.718 554.659 190.713 554.649 190.686C554.64 190.658 554.638 190.654 554.629 190.626C554.62 190.599 554.618 190.594 554.609 190.567C554.599 190.539 554.598 190.535 554.588 190.508C554.579 190.48 554.577 190.476 554.568 190.448C554.559 190.421 554.557 190.416 554.548 190.389C554.538 190.361 554.537 190.357 554.527 190.329C554.518 190.302 554.517 190.298 554.507 190.27C554.498 190.243 554.496 190.238 554.487 190.211C554.477 190.183 554.476 190.179 554.466 190.151C554.457 190.124 554.456 190.119 554.446 190.092C554.437 190.064 554.435 190.06 554.426 190.033C554.416 190.005 554.415 190.001 554.406 189.973C554.396 189.946 554.395 189.941 554.385 189.914C554.376 189.886 554.374 189.882 554.365 189.854C554.356 189.827 554.354 189.823 554.345 189.795C554.335 189.768 554.334 189.763 554.324 189.736C554.315 189.708 554.313 189.704 554.304 189.676L552.412 190.324C552.452 190.443 552.452 190.442 552.493 190.561C552.534 190.68 552.533 190.679 552.574 190.799C552.615 190.918 552.615 190.917 552.655 191.036C552.696 191.155 552.696 191.154 552.737 191.274C552.777 191.393 552.777 191.392 552.818 191.511C552.859 191.63 552.858 191.629 552.899 191.749C552.94 191.868 552.94 191.867 552.98 191.986C553.021 192.105 553.021 192.104 553.062 192.224C553.102 192.343 553.102 192.342 553.143 192.461C553.184 192.58 553.183 192.579 553.224 192.699C553.265 192.818 553.265 192.817 553.305 192.936C553.346 193.055 553.346 193.054 553.387 193.174C553.427 193.293 553.427 193.292 553.468 193.411C553.509 193.53 553.508 193.529 553.549 193.649C553.59 193.768 553.59 193.767 553.63 193.886C553.671 194.005 553.671 194.004 553.712 194.124C553.752 194.243 553.752 194.242 553.793 194.361C553.834 194.48 553.833 194.479 553.874 194.599C553.915 194.718 553.915 194.717 553.955 194.836C553.996 194.955 553.996 194.954 554.037 195.074C554.077 195.193 554.077 195.192 554.118 195.311C554.159 195.43 554.158 195.429 554.199 195.549C554.24 195.668 554.24 195.667 554.28 195.786C554.321 195.905 554.321 195.904 554.362 196.024C554.402 196.143 554.402 196.142 554.443 196.261C554.484 196.38 554.483 196.379 554.524 196.499C554.565 196.618 554.565 196.617 554.605 196.736C554.646 196.855 554.646 196.854 554.687 196.974C554.727 197.093 554.727 197.092 554.768 197.211C554.809 197.33 554.808 197.329 554.849 197.449C554.89 197.568 554.89 197.567 554.93 197.686C554.971 197.805 554.971 197.804 555.012 197.924C555.021 197.951 555.023 197.956 555.032 197.983C555.041 198.011 555.043 198.015 555.052 198.042C555.062 198.07 555.063 198.074 555.073 198.102C555.082 198.129 555.083 198.134 555.093 198.161C555.102 198.189 555.104 198.193 555.113 198.221C555.123 198.248 555.124 198.252 555.134 198.28C555.143 198.307 555.144 198.312 555.154 198.339C555.163 198.367 555.165 198.371 555.174 198.399C555.184 198.426 555.185 198.431 555.194 198.458C555.204 198.486 555.205 198.49 555.215 198.517C555.224 198.545 555.226 198.549 555.235 198.577C555.245 198.604 555.246 198.609 555.255 198.636C555.265 198.664 555.266 198.668 555.276 198.696C555.285 198.723 555.287 198.727 555.296 198.755C555.305 198.782 555.307 198.787 555.316 198.814C555.326 198.842 555.327 198.846 555.337 198.874C555.346 198.901 555.348 198.906 555.357 198.933C555.366 198.961 555.368 198.965 555.377 198.992C555.387 199.02 555.388 199.024 555.398 199.052C555.407 199.079 555.408 199.084 555.418 199.111C555.427 199.139 555.429 199.143 555.438 199.171C555.448 199.198 555.449 199.202 555.459 199.23C555.468 199.257 555.469 199.262 555.479 199.289C555.488 199.317 555.49 199.321 555.499 199.349C555.509 199.376 555.51 199.381 555.519 199.408C555.529 199.436 555.53 199.44 555.54 199.467C555.549 199.495 555.551 199.499 555.56 199.527C555.57 199.554 555.571 199.559 555.58 199.586C555.59 199.614 555.591 199.618 555.601 199.646C555.61 199.673 555.612 199.677 555.621 199.705C555.63 199.732 555.632 199.737 555.641 199.764C555.651 199.792 555.652 199.796 555.662 199.824C555.671 199.851 555.673 199.856 555.682 199.883C555.691 199.911 555.693 199.915 555.702 199.942C555.712 199.97 555.713 199.974 555.723 200.002C555.732 200.029 555.733 200.034 555.743 200.061C555.752 200.089 555.754 200.093 555.763 200.121C555.773 200.148 555.774 200.152 555.784 200.18C555.793 200.207 555.794 200.212 555.804 200.239C555.813 200.267 555.815 200.271 555.824 200.299C555.834 200.326 555.835 200.331 555.844 200.358C555.854 200.386 555.855 200.39 555.865 200.417C555.874 200.445 555.876 200.449 555.885 200.477C555.895 200.504 555.896 200.509 555.905 200.536C555.915 200.564 555.916 200.568 555.926 200.596C555.935 200.623 555.937 200.627 555.946 200.655C555.955 200.682 555.957 200.687 555.966 200.714C555.976 200.742 555.977 200.746 555.987 200.774C555.996 200.801 555.998 200.806 556.007 200.833C556.016 200.861 556.018 200.865 556.027 200.892C556.037 200.92 556.038 200.924 556.048 200.952C556.057 200.979 556.058 200.984 556.068 201.011C556.077 201.039 556.079 201.043 556.088 201.071C556.098 201.098 556.099 201.102 556.109 201.13C556.118 201.157 556.119 201.162 556.129 201.189C556.138 201.217 556.14 201.221 556.149 201.249C556.159 201.276 556.16 201.281 556.169 201.308C556.179 201.336 556.18 201.34 556.19 201.367C556.199 201.395 556.201 201.399 556.21 201.427C556.22 201.454 556.221 201.459 556.23 201.486C556.24 201.514 556.241 201.518 556.251 201.546C556.26 201.573 556.262 201.577 556.271 201.605C556.28 201.632 556.282 201.637 556.291 201.664C556.301 201.692 556.302 201.696 556.312 201.724C556.321 201.751 556.323 201.756 556.332 201.783C556.341 201.811 556.343 201.815 556.352 201.842C556.362 201.87 556.363 201.874 556.373 201.902C556.382 201.929 556.383 201.934 556.393 201.961C556.402 201.989 556.404 201.993 556.413 202.021C556.423 202.048 556.424 202.052 556.434 202.08C556.443 202.107 556.444 202.112 556.454 202.139C556.463 202.167 556.465 202.171 556.474 202.199C556.484 202.226 556.485 202.231 556.494 202.258C556.504 202.286 556.505 202.29 556.515 202.317C556.524 202.345 556.526 202.349 556.535 202.377C556.545 202.404 556.546 202.409 556.555 202.436C556.565 202.464 556.566 202.468 556.576 202.496C556.585 202.523 556.587 202.527 556.596 202.555C556.605 202.582 556.607 202.587 556.616 202.614C556.626 202.642 556.627 202.646 556.637 202.674C556.646 202.701 556.648 202.706 556.657 202.733C556.666 202.761 556.668 202.765 556.677 202.792C556.687 202.82 556.688 202.824 556.698 202.852C556.707 202.879 556.708 202.884 556.718 202.911C556.727 202.939 556.729 202.943 556.738 202.971C556.748 202.998 556.749 203.002 556.759 203.03C556.768 203.057 556.769 203.062 556.779 203.089C556.788 203.117 556.79 203.121 556.799 203.149C556.809 203.176 556.81 203.181 556.819 203.208C556.829 203.236 556.83 203.24 556.84 203.267C556.849 203.295 556.851 203.299 556.86 203.327C556.87 203.354 556.871 203.359 556.88 203.386C556.89 203.414 556.891 203.418 556.901 203.446C556.91 203.473 556.912 203.477 556.921 203.505C556.93 203.532 556.932 203.537 556.941 203.564C556.951 203.592 556.952 203.596 556.962 203.624C556.971 203.651 556.973 203.656 556.982 203.683C556.991 203.711 556.993 203.715 557.002 203.742C557.012 203.77 557.013 203.774 557.023 203.802C557.032 203.829 557.033 203.834 557.043 203.861C557.052 203.889 557.054 203.893 557.063 203.921C557.073 203.948 557.074 203.952 557.084 203.98C557.093 204.009 557.094 204.011 557.104 204.039C557.114 204.068 557.114 204.07 557.124 204.099C557.134 204.127 557.135 204.129 557.144 204.158C557.154 204.187 557.155 204.189 557.165 204.217C557.175 204.246 557.175 204.248 557.185 204.277C557.188 204.287 557.192 204.297 557.195 204.307C557.199 204.316 557.202 204.326 557.205 204.336C557.215 204.364 557.216 204.368 557.226 204.396C557.235 204.423 557.237 204.428 557.246 204.455C557.255 204.482 557.257 204.487 557.266 204.514C557.276 204.542 557.277 204.546 557.287 204.574C557.296 204.601 557.298 204.606 557.307 204.633C557.316 204.66 557.318 204.665 557.327 204.692C557.337 204.72 557.338 204.724 557.348 204.752C557.357 204.779 557.359 204.784 557.368 204.811C557.4 204.904 557.417 204.956 557.449 205.049C557.479 205.136 557.5 205.198 557.53 205.286C557.56 205.374 557.582 205.436 557.612 205.524L559.504 204.876ZM553.358 189H499.358V191H553.358V189ZM498.412 189.676C496.681 194.736 494.883 199.795 493.019 204.854L494.896 205.546C496.765 200.472 498.568 195.398 500.304 190.324L498.412 189.676ZM493.012 204.876C491.275 209.953 489.672 214.897 488.201 219.708L490.114 220.292C491.577 215.503 493.174 210.581 494.904 205.524L493.012 204.876ZM489.158 219H456.758V221H489.158V219ZM457.702 220.329C462.901 205.4 467.832 191.606 472.496 178.946L470.619 178.254C465.95 190.927 461.015 204.733 455.813 219.671L457.702 220.329ZM472.496 178.946C477.161 166.285 481.691 154.358 486.089 143.166L484.227 142.434C479.824 153.642 475.288 165.582 470.619 178.254L472.496 178.946ZM486.085 143.175C490.616 131.98 495.014 121.386 499.278 111.392L497.438 110.608C493.169 120.614 488.766 131.22 484.231 142.425L486.085 143.175ZM499.275 111.398C503.67 101.278 508.197 91.4239 512.857 81.8372L511.058 80.9628C506.385 90.5761 501.846 100.456 497.441 110.602L499.275 111.398ZM511.958 82.4H541.758V80.4H511.958V82.4ZM540.854 81.827C545.382 91.4171 549.845 101.274 554.241 111.398L556.075 110.602C551.671 100.459 547.2 90.5829 542.662 80.973L540.854 81.827ZM554.243 111.403C558.637 121.389 563.031 131.977 567.427 143.166L569.289 142.434C564.884 131.223 560.479 120.611 556.073 110.597L554.243 111.403ZM567.431 143.175C571.96 154.364 576.556 166.288 581.219 178.946L583.096 178.254C578.426 165.579 573.822 153.636 569.285 142.425L567.431 143.175ZM581.219 178.946C585.884 191.606 590.815 205.4 596.013 220.329L597.902 219.671C592.701 204.733 587.765 190.927 583.096 178.254L581.219 178.946ZM596.958 219H563.558V221H596.958V219ZM525.209 112.484C524.55 114.463 523.556 117.18 522.224 120.641L524.091 121.359C525.427 117.887 526.433 115.137 527.107 113.116L525.209 112.484ZM522.224 120.641C520.891 124.108 519.357 128.109 517.624 132.643L519.492 133.357C521.225 128.824 522.758 124.825 524.091 121.359L522.224 120.641ZM517.624 132.643C515.891 137.174 513.959 142.171 511.826 147.636L513.689 148.364C515.823 142.895 517.758 137.893 519.492 133.357L517.624 132.643ZM511.819 147.656C509.818 153.126 507.75 158.862 505.616 164.865L507.5 165.535C509.632 159.538 511.698 153.807 513.697 148.344L511.819 147.656ZM506.558 166.2H545.958V164.2H506.558V166.2ZM546.9 164.865C544.766 158.862 542.698 153.126 540.697 147.656L538.819 148.344C540.818 153.807 542.883 159.538 545.016 165.535L546.9 164.865ZM540.697 147.656C538.693 142.179 536.755 137.167 534.882 132.619L533.033 133.381C534.894 137.9 536.822 142.887 538.819 148.344L540.697 147.656ZM534.892 132.643C533.158 128.109 531.625 124.108 530.291 120.641L528.424 121.359C529.758 124.825 531.291 128.824 533.024 133.357L534.892 132.643ZM530.291 120.641C528.957 117.173 527.889 114.435 527.086 112.429L525.229 113.171C526.027 115.165 527.092 117.894 528.424 121.359L530.291 120.641ZM707.898 220L707.027 220.491L707.314 221H707.898V220ZM678.898 173L678.069 173.558L678.069 173.558L678.898 173ZM645.698 129.2L646.459 128.55L644.698 126.49V129.2H645.698ZM645.698 220V221H646.698V220H645.698ZM614.898 220H613.898V221H614.898V220ZM614.898 81.4V80.4H613.898V81.4H614.898ZM640.298 81.4L641.006 80.6929L640.713 80.4H640.298V81.4ZM654.898 97.6L655.667 96.9598L655.667 96.9598L654.898 97.6ZM671.098 118.2L670.297 118.798L670.303 118.806L670.309 118.814L671.098 118.2ZM687.698 140.8L686.877 141.371L686.882 141.377L687.698 140.8ZM703.098 163.2L702.266 163.755L704.098 166.503V163.2H703.098ZM703.098 81.4V80.4H702.098V81.4H703.098ZM734.098 81.4H735.098V80.4H734.098V81.4ZM734.098 220V221H735.098V220H734.098ZM708.77 219.509C699.823 203.619 690.143 187.93 679.728 172.442L678.069 173.558C688.454 189.003 698.107 204.647 707.027 220.491L708.77 219.509ZM679.728 172.442C669.308 156.945 658.218 142.314 646.459 128.55L644.938 129.85C656.646 143.553 667.689 158.122 678.069 173.558L679.728 172.442ZM644.698 129.2V220H646.698V129.2H644.698ZM645.698 219H614.898V221H645.698V219ZM615.898 220V81.4H613.898V220H615.898ZM614.898 82.4H640.298V80.4H614.898V82.4ZM639.591 82.1071C643.964 86.48 648.81 91.8562 654.13 98.2402L655.667 96.9598C650.32 90.5438 645.433 85.12 641.006 80.6929L639.591 82.1071ZM654.13 98.2402C659.451 104.625 664.84 111.477 670.297 118.798L671.9 117.602C666.424 110.256 661.013 103.375 655.667 96.9598L654.13 98.2402ZM670.309 118.814C675.898 125.999 681.42 133.518 686.877 141.371L688.52 140.229C683.043 132.349 677.499 124.801 671.888 117.586L670.309 118.814ZM686.882 141.377C692.344 149.104 697.472 156.563 702.266 163.755L703.93 162.645C699.125 155.437 693.986 147.963 688.515 140.223L686.882 141.377ZM704.098 163.2V81.4H702.098V163.2H704.098ZM703.098 82.4H734.098V80.4H703.098V82.4ZM733.098 81.4V220H735.098V81.4H733.098ZM734.098 219H707.898V221H734.098V219ZM802.07 117.6L801.291 116.974L801.289 116.975L802.07 117.6ZM794.87 169.2L793.909 169.475L793.911 169.481L794.87 169.2ZM802.07 183.4L802.851 182.775L802.851 182.775L802.07 183.4ZM814.07 192.8L813.643 193.704L813.654 193.709L813.664 193.714L814.07 192.8ZM839.67 195.8L839.618 194.801L839.615 194.802L839.67 195.8ZM846.27 195L846.48 195.978L847.27 195.808V195H846.27ZM846.27 146.8V145.8H845.27V146.8H846.27ZM877.47 146.8H878.47V145.8H877.47V146.8ZM877.47 215.4L877.836 216.331L878.47 216.082V215.4H877.47ZM859.47 220L859.28 219.018L859.273 219.02L859.265 219.021L859.47 220ZM800.47 217.8L800.114 218.735L800.119 218.736L800.47 217.8ZM778.87 203.8L778.155 204.499L778.155 204.499L778.87 203.8ZM764.87 181.2L763.929 181.537L763.933 181.55L764.87 181.2ZM765.47 119.8L764.543 119.426L764.543 119.426L765.47 119.8ZM780.27 97.2L780.97 97.9147L780.977 97.9071L780.27 97.2ZM802.27 83L801.919 82.0636L801.914 82.0655L802.27 83ZM847.07 79.6L846.894 80.5843L846.908 80.5868L846.922 80.5889L847.07 79.6ZM860.67 82.6L860.364 83.552L860.384 83.5584L860.404 83.564L860.67 82.6ZM870.07 86L869.623 86.8944L869.633 86.8992L869.642 86.9037L870.07 86ZM875.47 88.8L876.411 89.1387L876.684 88.3796L876 87.952L875.47 88.8ZM866.47 113.8L866.001 114.683L867.02 115.225L867.411 114.139L866.47 113.8ZM851.67 108L851.368 108.953L851.382 108.958L851.396 108.962L851.67 108ZM833.67 104.4C818.959 104.4 808.081 108.521 801.291 116.974L802.85 118.226C809.127 110.412 819.314 106.4 833.67 106.4V104.4ZM801.289 116.975C794.703 125.208 791.47 136.456 791.47 150.6H793.47C793.47 136.744 796.637 125.992 802.851 118.225L801.289 116.975ZM791.47 150.6C791.47 157.478 792.279 163.772 793.909 169.475L795.832 168.925C794.261 163.428 793.47 157.322 793.47 150.6H791.47ZM793.911 169.481C795.543 175.059 797.999 179.912 801.289 184.025L802.851 182.775C799.741 178.888 797.398 174.275 795.83 168.919L793.911 169.481ZM801.289 184.025C804.588 188.148 808.711 191.375 813.643 193.704L814.497 191.896C809.83 189.692 805.953 186.652 802.851 182.775L801.289 184.025ZM813.664 193.714C818.617 195.915 824.36 197 830.87 197V195C824.58 195 819.124 193.952 814.476 191.886L813.664 193.714ZM830.87 197C834.348 197 837.301 196.933 839.726 196.798L839.615 194.802C837.239 194.934 834.326 195 830.87 195V197ZM839.723 196.799C842.293 196.663 844.548 196.392 846.48 195.978L846.061 194.022C844.259 194.408 842.114 194.67 839.618 194.801L839.723 196.799ZM847.27 195V146.8H845.27V195H847.27ZM846.27 147.8H877.47V145.8H846.27V147.8ZM876.47 146.8V215.4H878.47V146.8H876.47ZM877.105 214.469C873.462 215.9 867.537 217.42 859.28 219.018L859.66 220.982C867.937 219.38 874.012 217.833 877.836 216.331L877.105 214.469ZM859.265 219.021C851.088 220.736 840.962 221.6 828.87 221.6V223.6C841.045 223.6 851.319 222.731 859.676 220.979L859.265 219.021ZM828.87 221.6C818.573 221.6 809.228 220.016 800.821 216.864L800.119 218.736C808.779 221.984 818.367 223.6 828.87 223.6V221.6ZM800.826 216.866C792.555 213.715 785.479 209.126 779.585 203.101L778.155 204.499C784.261 210.741 791.586 215.485 800.114 218.734L800.826 216.866ZM779.585 203.101C773.693 197.078 769.097 189.668 765.807 180.85L763.933 181.55C767.31 190.599 772.048 198.256 778.155 204.499L779.585 203.101ZM765.812 180.863C762.658 172.058 761.07 161.975 761.07 150.6H759.07C759.07 162.158 760.683 172.476 763.929 181.537L765.812 180.863ZM761.07 150.6C761.07 139.103 762.854 128.967 766.398 120.174L764.543 119.426C760.886 128.5 759.07 138.897 759.07 150.6H761.07ZM766.398 120.174C769.951 111.356 774.811 103.942 780.97 97.9147L779.571 96.4853C773.196 102.724 768.189 110.377 764.543 119.426L766.398 120.174ZM780.977 97.9071C787.143 91.7416 794.356 87.085 802.626 83.9345L801.914 82.0655C793.384 85.315 785.931 90.1251 779.563 96.4929L780.977 97.9071ZM802.621 83.9363C811.037 80.7806 819.984 79.2 829.47 79.2V77.2C819.757 77.2 810.571 78.8193 801.919 82.0637L802.621 83.9363ZM829.47 79.2C835.958 79.2 841.764 79.6635 846.894 80.5843L847.247 78.6157C841.977 77.6698 836.05 77.2 829.47 77.2V79.2ZM846.922 80.5889C852.22 81.3837 856.698 82.3734 860.364 83.552L860.976 81.648C857.176 80.4266 852.587 79.4163 847.219 78.6111L846.922 80.5889ZM860.404 83.564C864.236 84.621 867.302 85.7339 869.623 86.8944L870.518 85.1056C868.039 83.8661 864.838 82.7123 860.936 81.636L860.404 83.564ZM869.642 86.9037C872.172 88.1022 873.927 89.0146 874.94 89.648L876 87.952C874.88 87.2521 873.035 86.2978 870.498 85.0963L869.642 86.9037ZM874.529 88.4613L865.529 113.461L867.411 114.139L876.411 89.1387L874.529 88.4613ZM866.939 112.917C862.6 110.611 857.599 108.654 851.945 107.038L851.396 108.962C856.941 110.546 861.807 112.455 866.001 114.683L866.939 112.917ZM851.973 107.047C846.396 105.278 840.292 104.4 833.67 104.4V106.4C840.115 106.4 846.012 107.255 851.368 108.953L851.973 107.047ZM1036.35 220L1035.5 220.525L1035.79 221H1036.35V220ZM1026.35 205.4L1025.53 205.973L1025.54 205.985L1025.54 205.997L1026.35 205.4ZM1013.95 189.6L1013.18 190.236L1013.18 190.247L1013.19 190.257L1013.95 189.6ZM1000.15 174.4L999.43 175.097L999.44 175.107L1000.15 174.4ZM985.747 161.4L986.361 160.611L984.747 159.355V161.4H985.747ZM985.747 220V221H986.747V220H985.747ZM954.547 220H953.547V221H954.547V220ZM954.547 81.4V80.4H953.547V81.4H954.547ZM985.747 81.4H986.747V80.4H985.747V81.4ZM985.747 133.8H984.747V136.299L986.471 134.49L985.747 133.8ZM1010.15 107.2L1009.4 106.537L1009.4 106.538L1010.15 107.2ZM1033.15 81.4V80.4H1032.7L1032.4 80.7317L1033.15 81.4ZM1070.15 81.4L1070.91 82.0455L1072.3 80.4H1070.15V81.4ZM1041.55 113.8L1040.81 113.122L1040.81 113.127L1041.55 113.8ZM1011.55 145.2L1010.84 144.493L1010.06 145.268L1010.91 145.969L1011.55 145.2ZM1043.55 178L1042.77 178.63L1042.77 178.635L1043.55 178ZM1073.35 220V221H1075.14L1074.2 219.475L1073.35 220ZM1037.2 219.475C1034.38 214.912 1031.03 210.022 1027.15 204.803L1025.54 205.997C1029.4 211.178 1032.71 216.021 1035.5 220.525L1037.2 219.475ZM1027.17 204.827C1023.41 199.463 1019.26 194.168 1014.7 188.943L1013.19 190.257C1017.7 195.432 1021.82 200.671 1025.53 205.973L1027.17 204.827ZM1014.72 188.964C1010.3 183.606 1005.68 178.516 1000.85 173.693L999.44 175.107C1004.22 179.884 1008.8 184.927 1013.18 190.236L1014.72 188.964ZM1000.86 173.703C996.036 168.741 991.202 164.376 986.361 160.611L985.133 162.189C989.892 165.891 994.658 170.193 999.43 175.097L1000.86 173.703ZM984.747 161.4V220H986.747V161.4H984.747ZM985.747 219H954.547V221H985.747V219ZM955.547 220V81.4H953.547V220H955.547ZM954.547 82.4H985.747V80.4H954.547V82.4ZM984.747 81.4V133.8H986.747V81.4H984.747ZM986.471 134.49C994.613 125.947 1002.75 117.071 1010.9 107.862L1009.4 106.538C1001.27 115.729 993.147 124.586 985.023 133.11L986.471 134.49ZM1010.9 107.863C1019.16 98.5312 1026.83 89.9329 1033.89 82.0683L1032.4 80.7317C1025.33 88.6004 1017.67 97.2022 1009.4 106.537L1010.9 107.863ZM1033.15 82.4H1070.15V80.4H1033.15V82.4ZM1069.38 80.7545C1059.93 91.9437 1050.4 102.733 1040.81 113.122L1042.28 114.478C1051.89 104.067 1061.43 93.2563 1070.91 82.0455L1069.38 80.7545ZM1040.81 113.127C1031.35 123.515 1021.36 133.97 1010.84 144.493L1012.25 145.907C1022.8 135.363 1032.81 124.885 1042.29 114.473L1040.81 113.127ZM1010.91 145.969C1021.92 155.122 1032.54 166.007 1042.77 178.63L1044.32 177.37C1034.02 164.659 1023.31 153.678 1012.19 144.431L1010.91 145.969ZM1042.77 178.635C1053.14 191.263 1063.05 205.226 1072.5 220.525L1074.2 219.475C1064.71 204.107 1054.75 190.07 1044.32 177.365L1042.77 178.635ZM1073.35 219H1036.35V221H1073.35V219ZM1189.14 220L1188.19 220.292L1188.4 221H1189.14V220ZM1184.14 205.2L1183.2 205.524L1183.2 205.535L1183.21 205.546L1184.14 205.2ZM1178.94 190L1179.89 189.676L1179.66 189H1178.94V190ZM1124.94 190V189H1124.23L1124 189.676L1124.94 190ZM1119.54 205.2L1118.61 204.854L1118.6 204.865L1118.6 204.876L1119.54 205.2ZM1114.74 220V221H1115.48L1115.7 220.292L1114.74 220ZM1082.34 220L1081.4 219.671L1080.94 221H1082.34V220ZM1097.14 178.6L1098.08 178.946L1098.08 178.946L1097.14 178.6ZM1110.74 142.8L1109.82 142.425L1109.81 142.434L1110.74 142.8ZM1123.94 111L1123.03 110.602L1123.02 110.608L1123.94 111ZM1137.54 81.4V80.4H1136.92L1136.64 80.9628L1137.54 81.4ZM1167.34 81.4L1168.25 80.973L1167.98 80.4H1167.34V81.4ZM1180.74 111L1179.83 111.398L1179.83 111.403L1180.74 111ZM1193.94 142.8L1193.01 143.166L1193.02 143.175L1193.94 142.8ZM1207.74 178.6L1206.81 178.946L1206.81 178.946L1207.74 178.6ZM1222.54 220V221H1223.95L1223.49 219.671L1222.54 220ZM1151.74 112.8L1152.67 112.429L1151.66 109.894L1150.8 112.484L1151.74 112.8ZM1148.74 121L1147.81 120.641L1147.81 120.641L1148.74 121ZM1144.14 133L1143.21 132.643L1143.21 132.643L1144.14 133ZM1138.34 148L1137.41 147.636L1137.41 147.646L1137.4 147.656L1138.34 148ZM1132.14 165.2L1131.2 164.865L1130.73 166.2H1132.14V165.2ZM1171.54 165.2V166.2H1172.96L1172.49 164.865L1171.54 165.2ZM1165.34 148L1164.4 148.344L1164.4 148.344L1165.34 148ZM1159.54 133L1158.61 133.357L1158.61 133.369L1158.62 133.381L1159.54 133ZM1154.94 121L1155.88 120.641L1155.88 120.641L1154.94 121ZM1190.1 219.708C1188.63 214.888 1186.95 209.937 1185.08 204.854L1183.21 205.546C1185.07 210.596 1186.73 215.512 1188.19 220.292L1190.1 219.708ZM1185.09 204.876C1185.08 204.848 1185.06 204.785 1185.05 204.758C1185.04 204.73 1185.02 204.667 1185.01 204.639C1185 204.611 1184.98 204.548 1184.97 204.52C1184.96 204.492 1184.94 204.429 1184.93 204.401C1184.92 204.373 1184.9 204.31 1184.89 204.283C1184.88 204.273 1184.88 204.263 1184.88 204.253C1184.87 204.243 1184.87 204.233 1184.87 204.223C1184.86 204.213 1184.86 204.203 1184.86 204.193C1184.85 204.184 1184.85 204.174 1184.85 204.164C1184.81 204.055 1184.8 204.035 1184.76 203.926C1184.72 203.799 1184.73 203.816 1184.68 203.689C1184.64 203.566 1184.64 203.575 1184.6 203.451C1184.56 203.332 1184.56 203.333 1184.52 203.214C1184.48 203.095 1184.48 203.096 1184.44 202.976C1184.4 202.857 1184.4 202.858 1184.36 202.739C1184.32 202.62 1184.32 202.621 1184.28 202.501C1184.24 202.382 1184.24 202.383 1184.2 202.264C1184.16 202.145 1184.16 202.146 1184.11 202.026C1184.07 201.907 1184.07 201.908 1184.03 201.789C1183.99 201.67 1183.99 201.671 1183.95 201.551C1183.91 201.432 1183.91 201.433 1183.87 201.314C1183.83 201.195 1183.83 201.196 1183.79 201.076C1183.75 200.957 1183.75 200.958 1183.71 200.839C1183.67 200.72 1183.67 200.721 1183.63 200.601C1183.59 200.482 1183.59 200.483 1183.55 200.364C1183.51 200.245 1183.51 200.246 1183.46 200.126C1183.42 200.007 1183.42 200.008 1183.38 199.889C1183.34 199.77 1183.34 199.771 1183.3 199.651C1183.26 199.532 1183.26 199.533 1183.22 199.414C1183.18 199.295 1183.18 199.296 1183.14 199.176C1183.1 199.057 1183.1 199.058 1183.06 198.939C1183.02 198.82 1183.02 198.821 1182.98 198.701C1182.94 198.582 1182.94 198.583 1182.9 198.464C1182.86 198.345 1182.86 198.346 1182.81 198.226C1182.77 198.107 1182.77 198.108 1182.73 197.989C1182.69 197.87 1182.69 197.871 1182.65 197.751C1182.61 197.632 1182.61 197.633 1182.57 197.514C1182.53 197.395 1182.53 197.396 1182.49 197.276C1182.48 197.249 1182.48 197.244 1182.47 197.217C1182.46 197.189 1182.46 197.185 1182.45 197.158C1182.44 197.13 1182.44 197.126 1182.43 197.098C1182.42 197.071 1182.42 197.066 1182.41 197.039C1182.4 197.011 1182.4 197.007 1182.39 196.979C1182.38 196.952 1182.38 196.948 1182.37 196.92C1182.36 196.893 1182.36 196.888 1182.35 196.861C1182.34 196.833 1182.34 196.829 1182.33 196.801C1182.32 196.774 1182.32 196.769 1182.31 196.742C1182.3 196.714 1182.3 196.71 1182.29 196.683C1182.28 196.655 1182.28 196.651 1182.27 196.623C1182.26 196.596 1182.26 196.591 1182.25 196.564C1182.24 196.536 1182.24 196.532 1182.23 196.504C1182.22 196.477 1182.21 196.473 1182.21 196.445C1182.2 196.418 1182.19 196.413 1182.19 196.386C1182.18 196.358 1182.17 196.354 1182.16 196.326C1182.16 196.299 1182.15 196.294 1182.14 196.267C1182.14 196.239 1182.13 196.235 1182.12 196.208C1182.11 196.18 1182.11 196.176 1182.1 196.148C1182.09 196.121 1182.09 196.116 1182.08 196.089C1182.07 196.061 1182.07 196.057 1182.06 196.029C1182.05 196.002 1182.05 195.998 1182.04 195.97C1182.03 195.943 1182.03 195.938 1182.02 195.911C1182.01 195.883 1182.01 195.879 1182 195.851C1181.99 195.824 1181.99 195.819 1181.98 195.792C1181.97 195.764 1181.97 195.76 1181.96 195.733C1181.95 195.705 1181.95 195.701 1181.94 195.673C1181.93 195.646 1181.93 195.641 1181.92 195.614C1181.91 195.586 1181.91 195.582 1181.9 195.554C1181.89 195.527 1181.89 195.523 1181.88 195.495C1181.87 195.468 1181.87 195.463 1181.86 195.436C1181.85 195.408 1181.85 195.404 1181.84 195.376C1181.83 195.349 1181.83 195.344 1181.82 195.317C1181.81 195.289 1181.81 195.285 1181.8 195.258C1181.79 195.23 1181.79 195.226 1181.78 195.198C1181.77 195.171 1181.77 195.166 1181.76 195.139C1181.75 195.111 1181.75 195.107 1181.74 195.079C1181.73 195.052 1181.73 195.048 1181.72 195.02C1181.71 194.993 1181.71 194.988 1181.7 194.961C1181.69 194.933 1181.69 194.929 1181.68 194.901C1181.67 194.874 1181.67 194.869 1181.66 194.842C1181.65 194.814 1181.65 194.81 1181.64 194.783C1181.63 194.755 1181.63 194.751 1181.62 194.723C1181.61 194.696 1181.61 194.691 1181.6 194.664C1181.59 194.636 1181.59 194.632 1181.58 194.604C1181.57 194.577 1181.56 194.573 1181.56 194.545C1181.55 194.518 1181.54 194.513 1181.54 194.486C1181.53 194.458 1181.52 194.454 1181.51 194.426C1181.51 194.399 1181.5 194.394 1181.49 194.367C1181.49 194.339 1181.48 194.335 1181.47 194.308C1181.46 194.28 1181.46 194.276 1181.45 194.248C1181.44 194.221 1181.44 194.216 1181.43 194.189C1181.42 194.161 1181.42 194.157 1181.41 194.129C1181.4 194.102 1181.4 194.098 1181.39 194.07C1181.38 194.043 1181.38 194.038 1181.37 194.011C1181.36 193.983 1181.36 193.979 1181.35 193.951C1181.34 193.924 1181.34 193.919 1181.33 193.892C1181.32 193.864 1181.32 193.86 1181.31 193.833C1181.3 193.805 1181.3 193.801 1181.29 193.773C1181.28 193.746 1181.28 193.741 1181.27 193.714C1181.26 193.686 1181.26 193.682 1181.25 193.654C1181.24 193.627 1181.24 193.623 1181.23 193.595C1181.22 193.568 1181.22 193.563 1181.21 193.536C1181.2 193.508 1181.2 193.504 1181.19 193.476C1181.18 193.449 1181.18 193.444 1181.17 193.417C1181.16 193.389 1181.16 193.385 1181.15 193.358C1181.14 193.33 1181.14 193.326 1181.13 193.298C1181.12 193.271 1181.12 193.266 1181.11 193.239C1181.1 193.211 1181.1 193.207 1181.09 193.179C1181.08 193.152 1181.08 193.148 1181.07 193.12C1181.06 193.093 1181.06 193.088 1181.05 193.061C1181.04 193.033 1181.04 193.029 1181.03 193.001C1181.02 192.974 1181.02 192.969 1181.01 192.942C1181 192.914 1181 192.91 1180.99 192.883C1180.98 192.855 1180.98 192.851 1180.97 192.823C1180.96 192.796 1180.96 192.791 1180.95 192.764C1180.94 192.736 1180.94 192.732 1180.93 192.704C1180.92 192.677 1180.91 192.673 1180.91 192.645C1180.9 192.618 1180.89 192.613 1180.89 192.586C1180.88 192.558 1180.87 192.554 1180.86 192.526C1180.86 192.499 1180.85 192.494 1180.84 192.467C1180.84 192.439 1180.83 192.435 1180.82 192.408C1180.81 192.38 1180.81 192.376 1180.8 192.348C1180.79 192.321 1180.79 192.316 1180.78 192.289C1180.77 192.261 1180.77 192.257 1180.76 192.229C1180.75 192.202 1180.75 192.198 1180.74 192.17C1180.73 192.143 1180.73 192.138 1180.72 192.111C1180.71 192.083 1180.71 192.079 1180.7 192.051C1180.69 192.024 1180.69 192.019 1180.68 191.992C1180.67 191.964 1180.67 191.96 1180.66 191.933C1180.65 191.905 1180.65 191.901 1180.64 191.873C1180.63 191.846 1180.63 191.841 1180.62 191.814C1180.61 191.786 1180.61 191.782 1180.6 191.754C1180.59 191.727 1180.59 191.723 1180.58 191.695C1180.57 191.668 1180.57 191.663 1180.56 191.636C1180.55 191.608 1180.55 191.604 1180.54 191.576C1180.53 191.549 1180.53 191.544 1180.52 191.517C1180.51 191.489 1180.51 191.485 1180.5 191.458C1180.49 191.43 1180.49 191.426 1180.48 191.398C1180.47 191.371 1180.47 191.366 1180.46 191.339C1180.45 191.311 1180.45 191.307 1180.44 191.279C1180.43 191.252 1180.43 191.248 1180.42 191.22C1180.41 191.193 1180.41 191.188 1180.4 191.161C1180.39 191.133 1180.39 191.129 1180.38 191.101C1180.37 191.074 1180.37 191.069 1180.36 191.042C1180.35 191.014 1180.35 191.01 1180.34 190.983C1180.33 190.955 1180.33 190.951 1180.32 190.923C1180.31 190.896 1180.31 190.891 1180.3 190.864C1180.29 190.836 1180.29 190.832 1180.28 190.804C1180.27 190.777 1180.26 190.773 1180.26 190.745C1180.25 190.718 1180.24 190.713 1180.24 190.686C1180.23 190.658 1180.22 190.654 1180.21 190.626C1180.21 190.599 1180.2 190.594 1180.19 190.567C1180.19 190.539 1180.18 190.535 1180.17 190.508C1180.16 190.48 1180.16 190.476 1180.15 190.448C1180.14 190.421 1180.14 190.416 1180.13 190.389C1180.12 190.361 1180.12 190.357 1180.11 190.329C1180.1 190.302 1180.1 190.298 1180.09 190.27C1180.08 190.243 1180.08 190.238 1180.07 190.211C1180.06 190.183 1180.06 190.179 1180.05 190.151C1180.04 190.124 1180.04 190.119 1180.03 190.092C1180.02 190.064 1180.02 190.06 1180.01 190.033C1180 190.005 1180 190.001 1179.99 189.973C1179.98 189.946 1179.98 189.941 1179.97 189.914C1179.96 189.886 1179.96 189.882 1179.95 189.854C1179.94 189.827 1179.94 189.823 1179.93 189.795C1179.92 189.768 1179.92 189.763 1179.91 189.736C1179.9 189.708 1179.9 189.704 1179.89 189.676L1178 190.324C1178.04 190.443 1178.04 190.442 1178.08 190.561C1178.12 190.68 1178.12 190.679 1178.16 190.799C1178.2 190.918 1178.2 190.917 1178.24 191.036C1178.28 191.155 1178.28 191.154 1178.32 191.274C1178.36 191.393 1178.36 191.392 1178.4 191.511C1178.44 191.63 1178.44 191.629 1178.49 191.749C1178.53 191.868 1178.53 191.867 1178.57 191.986C1178.61 192.105 1178.61 192.104 1178.65 192.224C1178.69 192.343 1178.69 192.342 1178.73 192.461C1178.77 192.58 1178.77 192.579 1178.81 192.699C1178.85 192.818 1178.85 192.817 1178.89 192.936C1178.93 193.055 1178.93 193.054 1178.97 193.174C1179.01 193.293 1179.01 193.292 1179.05 193.411C1179.09 193.53 1179.09 193.529 1179.14 193.649C1179.18 193.768 1179.18 193.767 1179.22 193.886C1179.26 194.005 1179.26 194.004 1179.3 194.124C1179.34 194.243 1179.34 194.242 1179.38 194.361C1179.42 194.48 1179.42 194.479 1179.46 194.599C1179.5 194.718 1179.5 194.717 1179.54 194.836C1179.58 194.955 1179.58 194.954 1179.62 195.074C1179.66 195.193 1179.66 195.192 1179.7 195.311C1179.74 195.43 1179.74 195.429 1179.79 195.549C1179.83 195.668 1179.83 195.667 1179.87 195.786C1179.91 195.905 1179.91 195.904 1179.95 196.024C1179.99 196.143 1179.99 196.142 1180.03 196.261C1180.07 196.38 1180.07 196.379 1180.11 196.499C1180.15 196.618 1180.15 196.617 1180.19 196.736C1180.23 196.855 1180.23 196.854 1180.27 196.974C1180.31 197.093 1180.31 197.092 1180.35 197.211C1180.39 197.33 1180.39 197.329 1180.44 197.449C1180.48 197.568 1180.48 197.567 1180.52 197.686C1180.56 197.805 1180.56 197.804 1180.6 197.924C1180.61 197.951 1180.61 197.956 1180.62 197.983C1180.63 198.011 1180.63 198.015 1180.64 198.042C1180.65 198.07 1180.65 198.074 1180.66 198.102C1180.67 198.129 1180.67 198.134 1180.68 198.161C1180.69 198.189 1180.69 198.193 1180.7 198.221C1180.71 198.248 1180.71 198.252 1180.72 198.28C1180.73 198.307 1180.73 198.312 1180.74 198.339C1180.75 198.367 1180.75 198.371 1180.76 198.399C1180.77 198.426 1180.77 198.431 1180.78 198.458C1180.79 198.486 1180.79 198.49 1180.8 198.517C1180.81 198.545 1180.81 198.549 1180.82 198.577C1180.83 198.604 1180.83 198.609 1180.84 198.636C1180.85 198.664 1180.85 198.668 1180.86 198.696C1180.87 198.723 1180.87 198.727 1180.88 198.755C1180.89 198.782 1180.89 198.787 1180.9 198.814C1180.91 198.842 1180.91 198.846 1180.92 198.874C1180.93 198.901 1180.93 198.906 1180.94 198.933C1180.95 198.961 1180.95 198.965 1180.96 198.992C1180.97 199.02 1180.97 199.024 1180.98 199.052C1180.99 199.079 1180.99 199.084 1181 199.111C1181.01 199.139 1181.01 199.143 1181.02 199.171C1181.03 199.198 1181.04 199.202 1181.04 199.23C1181.05 199.257 1181.06 199.262 1181.06 199.289C1181.07 199.317 1181.08 199.321 1181.09 199.349C1181.09 199.376 1181.1 199.381 1181.11 199.408C1181.11 199.436 1181.12 199.44 1181.13 199.467C1181.14 199.495 1181.14 199.499 1181.15 199.527C1181.16 199.554 1181.16 199.559 1181.17 199.586C1181.18 199.614 1181.18 199.618 1181.19 199.646C1181.2 199.673 1181.2 199.677 1181.21 199.705C1181.22 199.732 1181.22 199.737 1181.23 199.764C1181.24 199.792 1181.24 199.796 1181.25 199.824C1181.26 199.851 1181.26 199.856 1181.27 199.883C1181.28 199.911 1181.28 199.915 1181.29 199.942C1181.3 199.97 1181.3 199.974 1181.31 200.002C1181.32 200.029 1181.32 200.034 1181.33 200.061C1181.34 200.089 1181.34 200.093 1181.35 200.121C1181.36 200.148 1181.36 200.152 1181.37 200.18C1181.38 200.207 1181.38 200.212 1181.39 200.239C1181.4 200.267 1181.4 200.271 1181.41 200.299C1181.42 200.326 1181.42 200.331 1181.43 200.358C1181.44 200.386 1181.44 200.39 1181.45 200.417C1181.46 200.445 1181.46 200.449 1181.47 200.477C1181.48 200.504 1181.48 200.509 1181.49 200.536C1181.5 200.564 1181.5 200.568 1181.51 200.596C1181.52 200.623 1181.52 200.627 1181.53 200.655C1181.54 200.682 1181.54 200.687 1181.55 200.714C1181.56 200.742 1181.56 200.746 1181.57 200.774C1181.58 200.801 1181.58 200.806 1181.59 200.833C1181.6 200.861 1181.6 200.865 1181.61 200.892C1181.62 200.92 1181.62 200.924 1181.63 200.952C1181.64 200.979 1181.64 200.984 1181.65 201.011C1181.66 201.039 1181.66 201.043 1181.67 201.071C1181.68 201.098 1181.69 201.102 1181.69 201.13C1181.7 201.157 1181.71 201.162 1181.71 201.189C1181.72 201.217 1181.73 201.221 1181.74 201.249C1181.74 201.276 1181.75 201.281 1181.76 201.308C1181.76 201.336 1181.77 201.34 1181.78 201.367C1181.79 201.395 1181.79 201.399 1181.8 201.427C1181.81 201.454 1181.81 201.459 1181.82 201.486C1181.83 201.514 1181.83 201.518 1181.84 201.546C1181.85 201.573 1181.85 201.577 1181.86 201.605C1181.87 201.632 1181.87 201.637 1181.88 201.664C1181.89 201.692 1181.89 201.696 1181.9 201.724C1181.91 201.751 1181.91 201.756 1181.92 201.783C1181.93 201.811 1181.93 201.815 1181.94 201.842C1181.95 201.87 1181.95 201.874 1181.96 201.902C1181.97 201.929 1181.97 201.934 1181.98 201.961C1181.99 201.989 1181.99 201.993 1182 202.021C1182.01 202.048 1182.01 202.052 1182.02 202.08C1182.03 202.107 1182.03 202.112 1182.04 202.139C1182.05 202.167 1182.05 202.171 1182.06 202.199C1182.07 202.226 1182.07 202.231 1182.08 202.258C1182.09 202.286 1182.09 202.29 1182.1 202.317C1182.11 202.345 1182.11 202.349 1182.12 202.377C1182.13 202.404 1182.13 202.409 1182.14 202.436C1182.15 202.464 1182.15 202.468 1182.16 202.496C1182.17 202.523 1182.17 202.527 1182.18 202.555C1182.19 202.582 1182.19 202.587 1182.2 202.614C1182.21 202.642 1182.21 202.646 1182.22 202.674C1182.23 202.701 1182.23 202.706 1182.24 202.733C1182.25 202.761 1182.25 202.765 1182.26 202.792C1182.27 202.82 1182.27 202.824 1182.28 202.852C1182.29 202.879 1182.29 202.884 1182.3 202.911C1182.31 202.939 1182.31 202.943 1182.32 202.971C1182.33 202.998 1182.34 203.002 1182.34 203.03C1182.35 203.057 1182.36 203.062 1182.36 203.089C1182.37 203.117 1182.38 203.121 1182.39 203.149C1182.39 203.176 1182.4 203.181 1182.41 203.208C1182.41 203.236 1182.42 203.24 1182.43 203.267C1182.44 203.295 1182.44 203.299 1182.45 203.327C1182.46 203.354 1182.46 203.359 1182.47 203.386C1182.48 203.414 1182.48 203.418 1182.49 203.446C1182.5 203.473 1182.5 203.477 1182.51 203.505C1182.52 203.532 1182.52 203.537 1182.53 203.564C1182.54 203.592 1182.54 203.596 1182.55 203.624C1182.56 203.651 1182.56 203.656 1182.57 203.683C1182.58 203.711 1182.58 203.715 1182.59 203.742C1182.6 203.77 1182.6 203.774 1182.61 203.802C1182.62 203.829 1182.62 203.834 1182.63 203.861C1182.64 203.889 1182.64 203.893 1182.65 203.921C1182.66 203.948 1182.66 203.952 1182.67 203.98C1182.68 204.009 1182.68 204.011 1182.69 204.039C1182.7 204.068 1182.7 204.07 1182.71 204.099C1182.72 204.127 1182.72 204.129 1182.73 204.158C1182.74 204.187 1182.74 204.189 1182.75 204.217C1182.76 204.246 1182.76 204.248 1182.77 204.277C1182.77 204.287 1182.78 204.297 1182.78 204.307C1182.78 204.316 1182.79 204.326 1182.79 204.336C1182.8 204.364 1182.8 204.368 1182.81 204.396C1182.82 204.423 1182.82 204.428 1182.83 204.455C1182.84 204.482 1182.84 204.487 1182.85 204.514C1182.86 204.542 1182.86 204.546 1182.87 204.574C1182.88 204.601 1182.88 204.606 1182.89 204.633C1182.9 204.66 1182.9 204.665 1182.91 204.692C1182.92 204.72 1182.92 204.724 1182.93 204.752C1182.94 204.779 1182.94 204.784 1182.95 204.811C1182.99 204.904 1183 204.956 1183.04 205.049C1183.07 205.136 1183.09 205.198 1183.12 205.286C1183.15 205.374 1183.17 205.436 1183.2 205.524L1185.09 204.876ZM1178.94 189H1124.94V191H1178.94V189ZM1124 189.676C1122.27 194.736 1120.47 199.795 1118.61 204.854L1120.48 205.546C1122.35 200.472 1124.15 195.398 1125.89 190.324L1124 189.676ZM1118.6 204.876C1116.86 209.953 1115.26 214.897 1113.79 219.708L1115.7 220.292C1117.16 215.503 1118.76 210.581 1120.49 205.524L1118.6 204.876ZM1114.74 219H1082.34V221H1114.74V219ZM1083.29 220.329C1088.49 205.4 1093.42 191.606 1098.08 178.946L1096.21 178.254C1091.54 190.927 1086.6 204.733 1081.4 219.671L1083.29 220.329ZM1098.08 178.946C1102.75 166.285 1107.28 154.358 1111.67 143.166L1109.81 142.434C1105.41 153.642 1100.87 165.582 1096.21 178.254L1098.08 178.946ZM1111.67 143.175C1116.2 131.98 1120.6 121.386 1124.86 111.392L1123.02 110.608C1118.75 120.614 1114.35 131.22 1109.82 142.425L1111.67 143.175ZM1124.86 111.398C1129.26 101.278 1133.78 91.4239 1138.44 81.8372L1136.64 80.9628C1131.97 90.5761 1127.43 100.456 1123.03 110.602L1124.86 111.398ZM1137.54 82.4H1167.34V80.4H1137.54V82.4ZM1166.44 81.827C1170.97 91.4171 1175.43 101.274 1179.83 111.398L1181.66 110.602C1177.26 100.459 1172.79 90.5829 1168.25 80.973L1166.44 81.827ZM1179.83 111.403C1184.22 121.389 1188.62 131.977 1193.01 143.166L1194.87 142.434C1190.47 131.223 1186.06 120.611 1181.66 110.597L1179.83 111.403ZM1193.02 143.175C1197.55 154.364 1202.14 166.288 1206.81 178.946L1208.68 178.254C1204.01 165.579 1199.41 153.636 1194.87 142.425L1193.02 143.175ZM1206.81 178.946C1211.47 191.606 1216.4 205.4 1221.6 220.329L1223.49 219.671C1218.29 204.733 1213.35 190.927 1208.68 178.254L1206.81 178.946ZM1222.54 219H1189.14V221H1222.54V219ZM1150.8 112.484C1150.14 114.463 1149.14 117.18 1147.81 120.641L1149.68 121.359C1151.01 117.887 1152.02 115.137 1152.69 113.116L1150.8 112.484ZM1147.81 120.641C1146.48 124.108 1144.94 128.109 1143.21 132.643L1145.08 133.357C1146.81 128.824 1148.34 124.825 1149.68 121.359L1147.81 120.641ZM1143.21 132.643C1141.48 137.174 1139.54 142.171 1137.41 147.636L1139.28 148.364C1141.41 142.895 1143.34 137.893 1145.08 133.357L1143.21 132.643ZM1137.4 147.656C1135.4 153.126 1133.34 158.862 1131.2 164.865L1133.09 165.535C1135.22 159.538 1137.28 153.807 1139.28 148.344L1137.4 147.656ZM1132.14 166.2H1171.54V164.2H1132.14V166.2ZM1172.49 164.865C1170.35 158.862 1168.28 153.126 1166.28 147.656L1164.4 148.344C1166.4 153.807 1168.47 159.538 1170.6 165.535L1172.49 164.865ZM1166.28 147.656C1164.28 142.179 1162.34 137.167 1160.47 132.619L1158.62 133.381C1160.48 137.9 1162.41 142.887 1164.4 148.344L1166.28 147.656ZM1160.48 132.643C1158.74 128.109 1157.21 124.108 1155.88 120.641L1154.01 121.359C1155.34 124.825 1156.88 128.824 1158.61 133.357L1160.48 132.643ZM1155.88 120.641C1154.54 117.173 1153.47 114.435 1152.67 112.429L1150.82 113.171C1151.61 115.165 1152.68 117.894 1154.01 121.359L1155.88 120.641ZM1277.28 81.4L1278.16 80.9211L1277.88 80.4H1277.28V81.4ZM1285.48 97.8L1284.58 98.2249L1284.58 98.2361L1284.59 98.2472L1285.48 97.8ZM1295.28 118.8L1294.37 119.202L1294.37 119.211L1294.38 119.221L1295.28 118.8ZM1305.48 141.8L1306.41 141.41L1306.41 141.41L1305.48 141.8ZM1314.88 164L1313.96 164.39L1314.88 166.566L1315.81 164.39L1314.88 164ZM1324.28 141.8L1323.36 141.41L1323.36 141.41L1324.28 141.8ZM1334.28 118.8L1333.37 118.385L1333.37 118.392L1334.28 118.8ZM1344.08 97.8L1343.19 97.3601L1343.18 97.3679L1344.08 97.8ZM1352.48 81.4V80.4H1351.89L1351.61 80.9211L1352.48 81.4ZM1380.88 81.4L1381.87 81.2566L1381.75 80.4H1380.88V81.4ZM1384.48 112.4L1383.49 112.493L1383.49 112.505L1384.48 112.4ZM1387.48 148L1386.49 148.064L1386.49 148.076L1387.48 148ZM1389.88 185L1388.89 185.054L1388.89 185.064L1389.88 185ZM1391.88 220V221H1392.93L1392.88 219.951L1391.88 220ZM1361.48 220L1360.48 220.03L1360.51 221H1361.48V220ZM1359.88 176L1360.88 175.958L1359.88 176ZM1356.88 128L1357.88 127.918L1355.97 127.606L1356.88 128ZM1340.08 167L1339.17 166.604L1339.16 166.612L1339.16 166.619L1340.08 167ZM1331.88 186.6L1332.8 186.999L1332.8 186.992L1331.88 186.6ZM1325.08 202.4V203.4H1325.75L1326 202.791L1325.08 202.4ZM1303.28 202.4L1302.36 202.791L1302.62 203.4H1303.28V202.4ZM1296.48 186.6L1295.56 186.992L1295.57 186.999L1296.48 186.6ZM1288.08 167L1287.16 167.381L1287.16 167.388L1287.17 167.396L1288.08 167ZM1279.48 146.6L1278.57 146.996L1278.57 146.996L1279.48 146.6ZM1271.48 128L1272.4 127.606L1270.49 127.918L1271.48 128ZM1268.48 176L1269.48 176.042L1269.48 176.042L1268.48 176ZM1266.88 220V221H1267.86L1267.88 220.03L1266.88 220ZM1236.48 220L1235.49 219.951L1235.43 221H1236.48V220ZM1238.28 185L1237.29 184.936L1237.29 184.946L1238.28 185ZM1240.68 148L1239.69 147.925L1239.69 147.935L1240.68 148ZM1243.68 112.4L1242.69 112.296L1242.69 112.306L1243.68 112.4ZM1247.48 81.4V80.4H1246.62L1246.49 81.2566L1247.48 81.4ZM1276.41 81.8788C1278.79 86.2553 1281.52 91.7026 1284.58 98.2249L1286.39 97.3751C1283.32 90.8307 1280.58 85.3447 1278.16 80.9211L1276.41 81.8788ZM1284.59 98.2472C1287.78 104.63 1291.04 111.615 1294.37 119.202L1296.2 118.398C1292.86 110.785 1289.59 103.77 1286.38 97.3528L1284.59 98.2472ZM1294.38 119.221C1297.84 126.677 1301.23 134.333 1304.56 142.19L1306.41 141.41C1303.07 133.533 1299.66 125.856 1296.19 118.379L1294.38 119.221ZM1304.56 142.19C1307.9 150.057 1311.03 157.456 1313.96 164.39L1315.81 163.61C1312.87 156.677 1309.74 149.277 1306.41 141.41L1304.56 142.19ZM1315.81 164.39C1318.74 157.456 1321.87 150.057 1325.21 142.19L1323.36 141.41C1320.03 149.277 1316.9 156.677 1313.96 163.61L1315.81 164.39ZM1325.21 142.19C1328.54 134.329 1331.87 126.668 1335.2 119.208L1333.37 118.392C1330.04 125.865 1326.7 133.538 1323.36 141.41L1325.21 142.19ZM1335.19 119.215C1338.66 111.62 1341.92 104.626 1344.99 98.2321L1343.18 97.3679C1340.11 103.774 1336.84 110.78 1333.37 118.385L1335.19 119.215ZM1344.98 98.2399C1348.18 91.7144 1350.97 86.2617 1353.36 81.8788L1351.61 80.9211C1349.2 85.3383 1346.39 90.8189 1343.19 97.3601L1344.98 98.2399ZM1352.48 82.4H1380.88V80.4H1352.48V82.4ZM1379.89 81.5434C1381.23 90.7231 1382.42 101.039 1383.49 112.493L1385.48 112.307C1384.41 100.828 1383.21 90.4769 1381.87 81.2566L1379.89 81.5434ZM1383.49 112.505C1384.69 123.824 1385.69 135.677 1386.49 148.064L1388.48 147.936C1387.68 135.523 1386.68 123.643 1385.48 112.295L1383.49 112.505ZM1386.49 148.076C1387.42 160.335 1388.22 172.661 1388.89 185.054L1390.88 184.946C1390.22 172.539 1389.42 160.198 1388.48 147.924L1386.49 148.076ZM1388.89 185.064C1389.69 197.46 1390.35 209.121 1390.89 220.049L1392.88 219.951C1392.35 209.012 1391.68 197.34 1390.88 184.936L1388.89 185.064ZM1391.88 219H1361.48V221H1391.88V219ZM1362.48 219.97C1362.08 206.499 1361.55 191.828 1360.88 175.958L1358.89 176.042C1359.55 191.905 1360.08 206.568 1360.48 220.03L1362.48 219.97ZM1360.88 175.958C1360.22 160.078 1359.22 144.064 1357.88 127.918L1355.89 128.082C1357.22 144.203 1358.22 160.189 1358.89 176.042L1360.88 175.958ZM1355.97 127.606C1353.57 133.205 1350.9 139.404 1347.97 146.204L1349.8 146.996C1352.74 140.196 1355.4 133.995 1357.8 128.394L1355.97 127.606ZM1347.97 146.204C1347.95 146.238 1347.95 146.25 1347.93 146.284C1347.92 146.317 1347.91 146.329 1347.9 146.363C1347.88 146.397 1347.88 146.409 1347.86 146.443C1347.85 146.477 1347.84 146.489 1347.83 146.523C1347.81 146.556 1347.81 146.569 1347.79 146.602C1347.78 146.636 1347.77 146.648 1347.76 146.682C1347.75 146.716 1347.74 146.728 1347.73 146.762C1347.71 146.796 1347.71 146.808 1347.69 146.841C1347.68 146.875 1347.67 146.887 1347.66 146.921C1347.64 146.955 1347.64 146.967 1347.62 147.001C1347.61 147.035 1347.6 147.047 1347.59 147.08C1347.57 147.114 1347.57 147.126 1347.55 147.16C1347.54 147.194 1347.53 147.206 1347.52 147.24C1347.5 147.274 1347.5 147.286 1347.48 147.32C1347.47 147.353 1347.47 147.365 1347.45 147.399C1347.44 147.433 1347.43 147.445 1347.42 147.479C1347.4 147.513 1347.4 147.525 1347.38 147.559C1347.37 147.592 1347.36 147.604 1347.35 147.638C1347.33 147.672 1347.33 147.684 1347.31 147.718C1347.3 147.752 1347.29 147.764 1347.28 147.798C1347.26 147.831 1347.26 147.844 1347.24 147.877C1347.23 147.911 1347.22 147.923 1347.21 147.957C1347.2 147.991 1347.19 148.003 1347.18 148.037C1347.16 148.071 1347.16 148.083 1347.14 148.116C1347.13 148.15 1347.12 148.162 1347.11 148.196C1347.09 148.23 1347.09 148.242 1347.07 148.276C1347.06 148.31 1347.05 148.322 1347.04 148.355C1347.02 148.389 1347.02 148.401 1347 148.435C1346.99 148.469 1346.98 148.481 1346.97 148.515C1346.95 148.549 1346.95 148.561 1346.93 148.595C1346.92 148.628 1346.92 148.64 1346.9 148.674C1346.89 148.708 1346.88 148.72 1346.87 148.754C1346.85 148.788 1346.85 148.8 1346.83 148.834C1346.82 148.867 1346.81 148.879 1346.8 148.913C1346.78 148.947 1346.78 148.959 1346.76 148.993C1346.75 149.027 1346.74 149.039 1346.73 149.073C1346.71 149.106 1346.71 149.119 1346.69 149.152C1346.68 149.186 1346.67 149.198 1346.66 149.232C1346.65 149.266 1346.64 149.278 1346.63 149.312C1346.61 149.346 1346.61 149.358 1346.59 149.391C1346.58 149.425 1346.57 149.437 1346.56 149.471C1346.54 149.505 1346.54 149.517 1346.52 149.551C1346.51 149.585 1346.5 149.597 1346.49 149.63C1346.47 149.664 1346.47 149.676 1346.45 149.71C1346.44 149.744 1346.43 149.756 1346.42 149.79C1346.4 149.824 1346.4 149.836 1346.38 149.87C1346.37 149.903 1346.37 149.915 1346.35 149.949C1346.34 149.983 1346.33 149.995 1346.32 150.029C1346.3 150.063 1346.3 150.075 1346.28 150.109C1346.27 150.142 1346.26 150.154 1346.25 150.188C1346.23 150.222 1346.23 150.234 1346.21 150.268C1346.2 150.302 1346.19 150.314 1346.18 150.348C1346.16 150.381 1346.16 150.394 1346.14 150.427C1346.13 150.461 1346.12 150.473 1346.11 150.507C1346.1 150.541 1346.09 150.553 1346.08 150.587C1346.06 150.621 1346.06 150.633 1346.04 150.666C1346.03 150.7 1346.02 150.712 1346.01 150.746C1345.99 150.78 1345.99 150.792 1345.97 150.826C1345.96 150.86 1345.95 150.872 1345.94 150.905C1345.92 150.939 1345.92 150.951 1345.9 150.985C1345.89 151.019 1345.88 151.031 1345.87 151.065C1345.85 151.099 1345.85 151.111 1345.83 151.145C1345.82 151.178 1345.82 151.19 1345.8 151.224C1345.79 151.258 1345.78 151.27 1345.77 151.304C1345.75 151.338 1345.75 151.35 1345.73 151.384C1345.72 151.417 1345.71 151.429 1345.7 151.463C1345.68 151.497 1345.68 151.509 1345.66 151.543C1345.65 151.577 1345.64 151.589 1345.63 151.623C1345.61 151.656 1345.61 151.669 1345.59 151.702C1345.58 151.736 1345.57 151.748 1345.56 151.782C1345.55 151.816 1345.54 151.828 1345.53 151.862C1345.51 151.896 1345.51 151.908 1345.49 151.941C1345.48 151.975 1345.47 151.987 1345.46 152.021C1345.44 152.055 1345.44 152.067 1345.42 152.101C1345.41 152.135 1345.4 152.147 1345.39 152.18C1345.37 152.214 1345.37 152.226 1345.35 152.26C1345.34 152.294 1345.33 152.306 1345.32 152.34C1345.3 152.374 1345.3 152.386 1345.28 152.42C1345.27 152.453 1345.27 152.465 1345.25 152.499C1345.24 152.533 1345.23 152.545 1345.22 152.579C1345.2 152.613 1345.2 152.625 1345.18 152.659C1345.17 152.692 1345.16 152.704 1345.15 152.738C1345.13 152.772 1345.13 152.784 1345.11 152.818C1345.1 152.852 1345.09 152.864 1345.08 152.898C1345.06 152.931 1345.06 152.944 1345.04 152.977C1345.03 153.011 1345.02 153.023 1345.01 153.057C1345 153.091 1344.99 153.103 1344.98 153.137C1344.96 153.171 1344.96 153.183 1344.94 153.216C1344.93 153.25 1344.92 153.262 1344.91 153.296C1344.89 153.33 1344.89 153.342 1344.87 153.376C1344.86 153.41 1344.85 153.422 1344.84 153.455C1344.82 153.489 1344.82 153.501 1344.8 153.535C1344.79 153.569 1344.78 153.581 1344.77 153.615C1344.75 153.649 1344.75 153.661 1344.73 153.695C1344.72 153.728 1344.72 153.74 1344.7 153.774C1344.69 153.808 1344.68 153.82 1344.67 153.854C1344.65 153.888 1344.65 153.9 1344.63 153.934C1344.62 153.967 1344.61 153.979 1344.6 154.013C1344.58 154.047 1344.58 154.059 1344.56 154.093C1344.55 154.127 1344.54 154.139 1344.53 154.173C1344.51 154.206 1344.51 154.219 1344.49 154.252C1344.48 154.286 1344.47 154.298 1344.46 154.332C1344.45 154.366 1344.44 154.378 1344.43 154.412C1344.41 154.446 1344.41 154.458 1344.39 154.491C1344.38 154.525 1344.37 154.537 1344.36 154.571C1344.34 154.605 1344.34 154.617 1344.32 154.651C1344.31 154.685 1344.3 154.697 1344.29 154.73C1344.27 154.764 1344.27 154.776 1344.25 154.81C1344.24 154.844 1344.23 154.856 1344.22 154.89C1344.2 154.924 1344.2 154.936 1344.18 154.97C1344.17 155.003 1344.17 155.015 1344.15 155.049C1344.14 155.083 1344.13 155.095 1344.12 155.129C1344.1 155.163 1344.1 155.175 1344.08 155.209C1344.07 155.242 1344.06 155.254 1344.05 155.288C1344.03 155.322 1344.03 155.334 1344.01 155.368C1344 155.402 1343.99 155.414 1343.98 155.448C1343.96 155.481 1343.96 155.494 1343.94 155.527C1343.94 155.541 1343.93 155.554 1343.93 155.567C1343.92 155.58 1343.92 155.594 1343.91 155.607C1343.9 155.62 1343.9 155.634 1343.89 155.647C1343.89 155.66 1343.88 155.673 1343.88 155.687C1343.87 155.7 1343.86 155.713 1343.86 155.727C1343.85 155.74 1343.85 155.753 1343.84 155.766C1343.8 155.856 1343.74 155.995 1343.7 156.085C1343.67 156.169 1343.71 156.081 1343.67 156.165C1343.63 156.249 1343.67 156.161 1343.63 156.245C1343.6 156.328 1343.64 156.24 1343.6 156.324C1343.56 156.408 1343.6 156.32 1343.57 156.404C1343.56 156.417 1343.55 156.43 1343.55 156.444C1343.54 156.457 1343.54 156.47 1343.53 156.484C1343.53 156.497 1343.52 156.51 1343.51 156.523C1343.51 156.537 1343.5 156.55 1343.5 156.563C1343.49 156.577 1343.49 156.59 1343.48 156.603C1343.47 156.616 1343.47 156.63 1343.46 156.643C1343.46 156.656 1343.45 156.67 1343.45 156.683C1343.44 156.696 1343.43 156.709 1343.43 156.723C1343.42 156.736 1343.42 156.749 1343.41 156.762C1343.41 156.776 1343.4 156.789 1343.39 156.802C1343.39 156.816 1343.38 156.829 1343.38 156.842C1343.37 156.855 1343.37 156.869 1343.36 156.882C1343.35 156.895 1343.35 156.909 1343.34 156.922C1343.34 156.935 1343.33 156.948 1343.33 156.962C1343.32 156.975 1343.31 156.988 1343.31 157.002C1343.3 157.015 1343.3 157.028 1343.29 157.041C1343.29 157.055 1343.28 157.068 1343.27 157.081C1343.27 157.095 1343.26 157.108 1343.26 157.121C1343.25 157.134 1343.25 157.148 1343.24 157.161C1343.23 157.174 1343.23 157.187 1343.22 157.201C1343.22 157.214 1343.21 157.227 1343.21 157.241C1343.2 157.254 1343.19 157.267 1343.19 157.28C1343.18 157.294 1343.18 157.307 1343.17 157.32C1343.17 157.334 1343.16 157.347 1343.15 157.36C1343.15 157.373 1343.14 157.387 1343.14 157.4C1343.13 157.413 1343.13 157.427 1343.12 157.44C1343.11 157.453 1343.11 157.466 1343.1 157.48C1343.1 157.493 1343.09 157.506 1343.08 157.52C1343.08 157.533 1343.07 157.546 1343.07 157.559C1343.06 157.573 1343.06 157.586 1343.05 157.599C1343.04 157.612 1343.04 157.626 1343.03 157.639C1343.03 157.652 1343.02 157.666 1343.02 157.679C1343.01 157.692 1343 157.705 1343 157.719C1342.99 157.732 1342.99 157.745 1342.98 157.759C1342.98 157.772 1342.97 157.785 1342.96 157.798C1342.96 157.812 1342.95 157.825 1342.95 157.838C1342.94 157.852 1342.94 157.865 1342.93 157.878C1342.92 157.891 1342.92 157.905 1342.91 157.918C1342.91 157.931 1342.9 157.945 1342.9 157.958C1342.89 157.971 1342.88 157.984 1342.88 157.998C1342.87 158.011 1342.87 158.024 1342.86 158.037C1342.86 158.051 1342.85 158.064 1342.84 158.077C1342.84 158.091 1342.83 158.104 1342.83 158.117C1342.82 158.13 1342.82 158.144 1342.81 158.157C1342.8 158.17 1342.8 158.184 1342.79 158.197C1342.79 158.21 1342.78 158.223 1342.78 158.237C1342.77 158.25 1342.76 158.263 1342.76 158.277C1342.75 158.29 1342.75 158.303 1342.74 158.316C1342.74 158.33 1342.73 158.343 1342.72 158.356C1342.72 158.37 1342.71 158.383 1342.71 158.396C1342.7 158.409 1342.7 158.423 1342.69 158.436C1342.68 158.449 1342.68 158.462 1342.67 158.476C1342.67 158.489 1342.66 158.502 1342.66 158.516C1342.65 158.529 1342.64 158.542 1342.64 158.555C1342.63 158.569 1342.63 158.582 1342.62 158.595C1342.62 158.609 1342.61 158.622 1342.6 158.635C1342.6 158.648 1342.59 158.662 1342.59 158.675C1342.58 158.688 1342.58 158.702 1342.57 158.715C1342.56 158.728 1342.56 158.741 1342.55 158.755C1342.55 158.768 1342.54 158.781 1342.53 158.795C1342.53 158.808 1342.52 158.821 1342.52 158.834C1342.51 158.848 1342.51 158.861 1342.5 158.874C1342.49 158.887 1342.49 158.901 1342.48 158.914C1342.48 158.927 1342.47 158.941 1342.47 158.954C1342.46 158.967 1342.45 158.98 1342.45 158.994C1342.44 159.007 1342.44 159.02 1342.43 159.034C1342.43 159.047 1342.42 159.06 1342.41 159.073C1342.41 159.087 1342.4 159.1 1342.4 159.113C1342.39 159.127 1342.39 159.14 1342.38 159.153C1342.37 159.166 1342.37 159.18 1342.36 159.193C1342.36 159.206 1342.35 159.22 1342.35 159.233C1342.34 159.246 1342.33 159.259 1342.33 159.273C1342.32 159.286 1342.32 159.299 1342.31 159.312C1342.31 159.326 1342.3 159.339 1342.29 159.352C1342.29 159.366 1342.28 159.379 1342.28 159.392C1342.27 159.405 1342.27 159.419 1342.26 159.432C1342.25 159.445 1342.25 159.459 1342.24 159.472C1342.24 159.485 1342.23 159.498 1342.23 159.512C1342.22 159.525 1342.21 159.538 1342.21 159.552C1342.2 159.565 1342.2 159.578 1342.19 159.591C1342.19 159.605 1342.18 159.618 1342.17 159.631C1342.17 159.645 1342.16 159.658 1342.16 159.671C1342.15 159.684 1342.15 159.698 1342.14 159.711C1342.13 159.724 1342.13 159.737 1342.12 159.751C1342.12 159.764 1342.11 159.777 1342.11 159.791C1342.1 159.804 1342.09 159.817 1342.09 159.83C1342.08 159.844 1342.08 159.857 1342.07 159.87C1342.07 159.884 1342.06 159.897 1342.05 159.91C1342.05 159.923 1342.04 159.937 1342.04 159.95C1342.03 159.963 1342.03 159.977 1342.02 159.99C1342.01 160.003 1342.01 160.016 1342 160.03C1342 160.043 1341.99 160.056 1341.98 160.07C1341.98 160.083 1341.97 160.096 1341.97 160.109C1341.96 160.123 1341.96 160.136 1341.95 160.149C1341.94 160.162 1341.94 160.176 1341.93 160.189C1341.93 160.202 1341.92 160.216 1341.92 160.229C1341.91 160.242 1341.9 160.255 1341.9 160.269C1341.89 160.282 1341.89 160.295 1341.88 160.309C1341.88 160.322 1341.87 160.335 1341.86 160.348C1341.86 160.362 1341.85 160.375 1341.85 160.388C1341.84 160.402 1341.84 160.415 1341.83 160.428C1341.82 160.441 1341.82 160.455 1341.81 160.468C1341.81 160.481 1341.8 160.495 1341.8 160.508C1341.79 160.521 1341.78 160.534 1341.78 160.548C1341.77 160.561 1341.77 160.574 1341.76 160.587C1341.76 160.601 1341.75 160.614 1341.74 160.627C1341.74 160.641 1341.73 160.654 1341.73 160.667C1341.72 160.68 1341.72 160.694 1341.71 160.707C1341.7 160.72 1341.7 160.734 1341.69 160.747C1341.69 160.76 1341.68 160.773 1341.68 160.787C1341.67 160.8 1341.66 160.813 1341.66 160.827C1341.65 160.84 1341.65 160.853 1341.64 160.866C1341.64 160.88 1341.63 160.893 1341.62 160.906C1341.62 160.92 1341.61 160.933 1341.61 160.946C1341.6 160.959 1341.6 160.973 1341.59 160.986C1341.58 160.999 1341.58 161.012 1341.57 161.026C1341.57 161.039 1341.56 161.052 1341.56 161.066C1341.55 161.079 1341.54 161.092 1341.54 161.105C1341.53 161.119 1341.53 161.132 1341.52 161.145C1341.52 161.159 1341.51 161.172 1341.5 161.185C1341.5 161.198 1341.49 161.212 1341.49 161.225C1341.48 161.238 1341.48 161.252 1341.47 161.265C1341.46 161.278 1341.46 161.291 1341.45 161.305C1341.45 161.318 1341.44 161.331 1341.43 161.345C1341.43 161.358 1341.42 161.371 1341.42 161.384C1341.41 161.398 1341.41 161.411 1341.4 161.424C1341.39 161.437 1341.39 161.451 1341.38 161.464C1341.38 161.477 1341.37 161.491 1341.37 161.504C1341.36 161.517 1341.35 161.53 1341.35 161.544C1341.34 161.557 1341.34 161.57 1341.33 161.584C1341.33 161.597 1341.32 161.61 1341.31 161.623C1341.31 161.637 1341.3 161.65 1341.3 161.663C1341.29 161.677 1341.29 161.69 1341.28 161.703C1341.27 161.716 1341.27 161.73 1341.26 161.743C1341.26 161.756 1341.25 161.77 1341.25 161.783C1341.24 161.796 1341.23 161.809 1341.23 161.823C1341.22 161.836 1341.22 161.849 1341.21 161.862C1341.21 161.876 1341.2 161.889 1341.19 161.902C1341.19 161.916 1341.18 161.929 1341.18 161.942C1341.17 161.955 1341.17 161.969 1341.16 161.982C1341.15 161.995 1341.15 162.009 1341.14 162.022C1341.14 162.035 1341.13 162.048 1341.13 162.062C1341.12 162.075 1341.11 162.088 1341.11 162.102C1341.1 162.115 1341.1 162.128 1341.09 162.141C1341.09 162.155 1341.08 162.168 1341.07 162.181C1341.07 162.195 1341.06 162.208 1341.06 162.221C1341.05 162.234 1341.05 162.248 1341.04 162.261C1341.03 162.274 1341.03 162.287 1341.02 162.301C1341.02 162.314 1341.01 162.327 1341.01 162.341C1341 162.354 1340.99 162.367 1340.99 162.38C1340.98 162.394 1340.98 162.407 1340.97 162.42C1340.97 162.434 1340.96 162.447 1340.95 162.46C1340.95 162.473 1340.94 162.487 1340.94 162.5C1340.93 162.513 1340.93 162.527 1340.92 162.54C1340.91 162.553 1340.91 162.566 1340.9 162.58C1340.9 162.593 1340.89 162.606 1340.88 162.62C1340.88 162.633 1340.87 162.646 1340.87 162.659C1340.86 162.673 1340.86 162.686 1340.85 162.699C1340.84 162.712 1340.84 162.726 1340.83 162.739C1340.83 162.752 1340.82 162.766 1340.82 162.779C1340.81 162.792 1340.8 162.805 1340.8 162.819C1340.79 162.832 1340.79 162.845 1340.78 162.859C1340.78 162.872 1340.77 162.885 1340.76 162.898C1340.76 162.912 1340.75 162.925 1340.75 162.938C1340.74 162.952 1340.74 162.965 1340.73 162.978C1340.72 162.991 1340.72 163.005 1340.71 163.018C1340.71 163.031 1340.7 163.045 1340.7 163.058C1340.69 163.071 1340.68 163.084 1340.68 163.098C1340.67 163.111 1340.67 163.124 1340.66 163.137C1340.66 163.151 1340.65 163.164 1340.64 163.177C1340.64 163.191 1340.63 163.204 1340.63 163.217C1340.62 163.23 1340.62 163.244 1340.61 163.257C1340.6 163.27 1340.6 163.284 1340.59 163.297C1340.59 163.31 1340.58 163.323 1340.58 163.337C1340.57 163.35 1340.56 163.363 1340.56 163.377C1340.55 163.39 1340.55 163.403 1340.54 163.416C1340.54 163.43 1340.53 163.443 1340.52 163.456C1340.52 163.47 1340.51 163.483 1340.51 163.496C1340.5 163.509 1340.5 163.523 1340.49 163.536C1340.48 163.549 1340.48 163.562 1340.47 163.576C1340.47 163.589 1340.46 163.602 1340.46 163.616C1340.45 163.629 1340.44 163.642 1340.44 163.655C1340.43 163.669 1340.43 163.682 1340.42 163.695C1340.42 163.709 1340.41 163.722 1340.4 163.735C1340.4 163.748 1340.39 163.762 1340.39 163.775C1340.38 163.788 1340.38 163.802 1340.37 163.815C1340.36 163.828 1340.36 163.841 1340.35 163.855C1340.35 163.868 1340.34 163.881 1340.33 163.895C1340.33 163.908 1340.32 163.921 1340.32 163.934C1340.31 163.948 1340.31 163.961 1340.3 163.974C1340.29 163.987 1340.29 164.001 1340.28 164.014C1340.28 164.027 1340.27 164.041 1340.27 164.054C1340.26 164.067 1340.25 164.08 1340.25 164.094C1340.24 164.107 1340.24 164.12 1340.23 164.134C1340.23 164.147 1340.22 164.16 1340.21 164.173C1340.21 164.187 1340.2 164.2 1340.2 164.213C1340.19 164.227 1340.19 164.24 1340.18 164.253C1340.17 164.266 1340.17 164.28 1340.16 164.293C1340.16 164.306 1340.15 164.32 1340.15 164.333C1340.14 164.346 1340.13 164.359 1340.13 164.373C1340.12 164.386 1340.12 164.399 1340.11 164.412C1340.11 164.426 1340.1 164.439 1340.09 164.452C1340.09 164.466 1340.08 164.479 1340.08 164.492C1340.07 164.505 1340.07 164.519 1340.06 164.532C1340.05 164.545 1340.05 164.559 1340.04 164.572C1340.04 164.585 1340.03 164.598 1340.03 164.612C1340.02 164.625 1340.01 164.638 1340.01 164.652C1340 164.665 1340 164.678 1339.99 164.691C1339.99 164.705 1339.98 164.718 1339.97 164.731C1339.97 164.745 1339.96 164.758 1339.96 164.771C1339.95 164.784 1339.95 164.798 1339.94 164.811C1339.93 164.824 1339.93 164.837 1339.92 164.851C1339.92 164.864 1339.91 164.877 1339.91 164.891C1339.9 164.904 1339.89 164.917 1339.89 164.93C1339.88 164.944 1339.88 164.957 1339.87 164.97C1339.87 164.984 1339.86 164.997 1339.85 165.01C1339.85 165.023 1339.84 165.037 1339.84 165.05C1339.83 165.063 1339.83 165.077 1339.82 165.09C1339.81 165.103 1339.81 165.116 1339.8 165.13C1339.8 165.143 1339.79 165.156 1339.78 165.17C1339.78 165.183 1339.77 165.196 1339.77 165.209C1339.76 165.223 1339.76 165.236 1339.75 165.249C1339.74 165.262 1339.74 165.276 1339.73 165.289C1339.73 165.302 1339.72 165.316 1339.72 165.329C1339.71 165.342 1339.7 165.355 1339.7 165.369C1339.69 165.382 1339.69 165.395 1339.68 165.409C1339.68 165.422 1339.67 165.435 1339.66 165.448C1339.66 165.462 1339.65 165.475 1339.65 165.488C1339.64 165.502 1339.64 165.515 1339.63 165.528C1339.62 165.541 1339.62 165.555 1339.61 165.568C1339.61 165.581 1339.6 165.595 1339.6 165.608C1339.59 165.621 1339.58 165.634 1339.58 165.648C1339.57 165.661 1339.57 165.674 1339.56 165.687C1339.56 165.701 1339.55 165.714 1339.54 165.727C1339.54 165.741 1339.53 165.754 1339.53 165.767C1339.52 165.78 1339.52 165.794 1339.51 165.807C1339.5 165.82 1339.5 165.834 1339.49 165.847C1339.49 165.86 1339.48 165.873 1339.48 165.887C1339.47 165.9 1339.46 165.913 1339.46 165.927C1339.45 165.94 1339.45 165.953 1339.44 165.966C1339.44 165.98 1339.43 165.993 1339.42 166.006C1339.42 166.02 1339.41 166.033 1339.41 166.046C1339.4 166.059 1339.4 166.073 1339.39 166.086C1339.38 166.099 1339.38 166.112 1339.37 166.126C1339.37 166.139 1339.36 166.152 1339.36 166.166C1339.35 166.179 1339.34 166.192 1339.34 166.205C1339.33 166.219 1339.33 166.232 1339.32 166.245C1339.32 166.259 1339.31 166.272 1339.3 166.285C1339.3 166.298 1339.29 166.312 1339.29 166.325C1339.28 166.338 1339.28 166.352 1339.27 166.365C1339.26 166.378 1339.26 166.391 1339.25 166.405C1339.25 166.418 1339.24 166.431 1339.23 166.445C1339.23 166.458 1339.22 166.471 1339.22 166.484C1339.21 166.498 1339.21 166.511 1339.2 166.524C1339.19 166.537 1339.19 166.551 1339.18 166.564C1339.18 166.577 1339.17 166.591 1339.17 166.604L1341 167.396C1341.04 167.312 1341 167.4 1341.04 167.316C1341.07 167.233 1341.04 167.32 1341.07 167.237C1341.11 167.153 1341.07 167.241 1341.11 167.157C1341.14 167.073 1341.1 167.161 1341.14 167.077C1341.18 166.994 1341.14 167.081 1341.17 166.998C1341.21 166.914 1341.17 167.002 1341.21 166.918C1341.24 166.834 1341.21 166.922 1341.24 166.838C1341.28 166.755 1341.24 166.842 1341.28 166.759C1341.31 166.675 1341.28 166.763 1341.31 166.679C1341.35 166.595 1341.31 166.683 1341.35 166.599C1341.38 166.515 1341.34 166.603 1341.38 166.52C1341.42 166.436 1341.38 166.524 1341.42 166.44C1341.45 166.356 1341.41 166.444 1341.45 166.36C1341.49 166.276 1341.45 166.364 1341.48 166.28C1341.52 166.197 1341.48 166.285 1341.52 166.201C1341.55 166.117 1341.52 166.205 1341.55 166.121C1341.59 166.037 1341.55 166.125 1341.59 166.041C1341.62 165.958 1341.59 166.045 1341.62 165.962C1341.66 165.878 1341.62 165.966 1341.66 165.882C1341.69 165.798 1341.65 165.886 1341.69 165.802C1341.73 165.719 1341.69 165.806 1341.72 165.723C1341.76 165.639 1341.72 165.727 1341.76 165.643C1341.79 165.559 1341.76 165.647 1341.79 165.563C1341.83 165.48 1341.79 165.567 1341.83 165.484C1341.86 165.4 1341.83 165.488 1341.86 165.404C1341.9 165.32 1341.86 165.408 1341.9 165.324C1341.93 165.24 1341.89 165.328 1341.93 165.245C1341.97 165.161 1341.93 165.249 1341.97 165.165C1342 165.081 1341.96 165.169 1342 165.085C1342.04 165.001 1342 165.089 1342.03 165.005C1342.07 164.922 1342.03 165.01 1342.07 164.926C1342.1 164.842 1342.07 164.93 1342.1 164.846C1342.14 164.762 1342.1 164.85 1342.14 164.766C1342.17 164.683 1342.14 164.77 1342.17 164.687C1342.21 164.603 1342.17 164.691 1342.21 164.607C1342.24 164.523 1342.2 164.611 1342.24 164.527C1342.28 164.444 1342.24 164.531 1342.27 164.448C1342.31 164.364 1342.27 164.452 1342.31 164.368C1342.34 164.284 1342.31 164.372 1342.34 164.288C1342.38 164.205 1342.34 164.292 1342.38 164.209C1342.41 164.125 1342.38 164.213 1342.41 164.129C1342.45 164.045 1342.41 164.133 1342.45 164.049C1342.48 163.965 1342.44 164.053 1342.48 163.97C1342.52 163.886 1342.48 163.974 1342.52 163.89C1342.55 163.806 1342.51 163.894 1342.55 163.81C1342.59 163.726 1342.55 163.814 1342.58 163.73C1342.62 163.647 1342.58 163.735 1342.62 163.651C1342.65 163.567 1342.62 163.655 1342.65 163.571C1342.69 163.487 1342.65 163.575 1342.69 163.491C1342.72 163.408 1342.69 163.495 1342.72 163.412C1342.76 163.328 1342.72 163.416 1342.76 163.332C1342.79 163.248 1342.75 163.336 1342.79 163.252C1342.83 163.169 1342.79 163.256 1342.82 163.173C1342.86 163.089 1342.82 163.177 1342.86 163.093C1342.89 163.009 1342.86 163.097 1342.89 163.013C1342.93 162.93 1342.89 163.017 1342.93 162.934C1342.96 162.85 1342.93 162.938 1342.96 162.854C1343 162.77 1342.96 162.858 1343 162.774C1343.03 162.69 1342.99 162.778 1343.03 162.695C1343.07 162.611 1343.03 162.699 1343.07 162.615C1343.1 162.531 1343.06 162.619 1343.1 162.535C1343.14 162.451 1343.1 162.539 1343.13 162.455C1343.17 162.372 1343.13 162.46 1343.17 162.376C1343.2 162.292 1343.17 162.38 1343.2 162.296C1343.24 162.212 1343.2 162.3 1343.24 162.216C1343.27 162.133 1343.24 162.22 1343.27 162.137C1343.31 162.053 1343.27 162.141 1343.31 162.057C1343.34 161.973 1343.3 162.061 1343.34 161.977C1343.38 161.894 1343.34 161.981 1343.37 161.898C1343.41 161.814 1343.37 161.902 1343.41 161.818C1343.44 161.734 1343.41 161.822 1343.44 161.738C1343.48 161.655 1343.44 161.742 1343.48 161.659C1343.51 161.575 1343.48 161.663 1343.51 161.579C1343.55 161.495 1343.51 161.583 1343.55 161.499C1343.58 161.415 1343.54 161.503 1343.58 161.42C1343.62 161.336 1343.58 161.424 1343.62 161.34C1343.65 161.256 1343.61 161.344 1343.65 161.26C1343.69 161.176 1343.65 161.264 1343.68 161.18C1343.72 161.097 1343.68 161.185 1343.72 161.101C1343.75 161.017 1343.72 161.105 1343.75 161.021C1343.79 160.937 1343.75 161.025 1343.79 160.941C1343.82 160.858 1343.79 160.945 1343.82 160.862C1343.86 160.778 1343.82 160.866 1343.86 160.782C1343.89 160.698 1343.85 160.786 1343.89 160.702C1343.93 160.619 1343.89 160.706 1343.92 160.623C1343.96 160.539 1343.92 160.627 1343.96 160.543C1343.99 160.459 1343.96 160.547 1343.99 160.463C1344.03 160.38 1343.99 160.467 1344.03 160.384C1344.06 160.3 1344.03 160.388 1344.06 160.304C1344.1 160.22 1344.06 160.308 1344.1 160.224C1344.13 160.14 1344.09 160.228 1344.13 160.145C1344.17 160.061 1344.13 160.149 1344.17 160.065C1344.2 159.981 1344.16 160.069 1344.2 159.985C1344.24 159.901 1344.2 159.989 1344.23 159.905C1344.27 159.822 1344.23 159.91 1344.27 159.826C1344.3 159.742 1344.27 159.83 1344.3 159.746C1344.34 159.662 1344.3 159.75 1344.34 159.666C1344.37 159.583 1344.34 159.67 1344.37 159.587C1344.41 159.503 1344.37 159.591 1344.41 159.507C1344.44 159.423 1344.4 159.511 1344.44 159.427C1344.48 159.344 1344.44 159.431 1344.47 159.348C1344.51 159.264 1344.47 159.352 1344.51 159.268C1344.54 159.184 1344.51 159.272 1344.54 159.188C1344.58 159.105 1344.54 159.192 1344.58 159.109C1344.61 159.025 1344.58 159.113 1344.61 159.029C1344.65 158.945 1344.61 159.033 1344.65 158.949C1344.68 158.865 1344.64 158.953 1344.68 158.87C1344.72 158.786 1344.68 158.874 1344.72 158.79C1344.75 158.706 1344.71 158.794 1344.75 158.71C1344.79 158.626 1344.75 158.714 1344.78 158.63C1344.82 158.547 1344.78 158.635 1344.82 158.551C1344.85 158.467 1344.82 158.555 1344.85 158.471C1344.89 158.387 1344.85 158.475 1344.89 158.391C1344.92 158.308 1344.89 158.395 1344.92 158.312C1344.96 158.228 1344.92 158.316 1344.96 158.232C1344.99 158.148 1344.95 158.236 1344.99 158.152C1345.03 158.069 1344.99 158.156 1345.02 158.073C1345.06 157.989 1345.02 158.077 1345.06 157.993C1345.09 157.909 1345.06 157.997 1345.09 157.913C1345.13 157.83 1345.09 157.917 1345.13 157.834C1345.16 157.75 1345.13 157.838 1345.16 157.754C1345.2 157.67 1345.16 157.758 1345.2 157.674C1345.23 157.59 1345.19 157.678 1345.23 157.595C1345.27 157.511 1345.23 157.599 1345.27 157.515C1345.3 157.431 1345.26 157.519 1345.3 157.435C1345.34 157.351 1345.3 157.439 1345.33 157.355C1345.37 157.272 1345.33 157.36 1345.37 157.276C1345.4 157.192 1345.37 157.28 1345.4 157.196C1345.41 157.183 1345.41 157.17 1345.42 157.156C1345.43 157.143 1345.43 157.13 1345.44 157.116C1345.44 157.103 1345.45 157.09 1345.45 157.077C1345.46 157.063 1345.47 157.05 1345.47 157.037C1345.48 157.023 1345.48 157.01 1345.49 156.997C1345.49 156.984 1345.5 156.97 1345.51 156.957C1345.51 156.944 1345.52 156.93 1345.52 156.917C1345.53 156.904 1345.53 156.891 1345.54 156.877C1345.55 156.864 1345.55 156.851 1345.56 156.837C1345.56 156.824 1345.57 156.811 1345.57 156.798C1345.58 156.784 1345.59 156.771 1345.59 156.758C1345.6 156.745 1345.6 156.731 1345.61 156.718C1345.61 156.705 1345.62 156.691 1345.63 156.678C1345.63 156.665 1345.64 156.652 1345.64 156.638C1345.65 156.625 1345.65 156.612 1345.66 156.598C1345.67 156.585 1345.67 156.572 1345.68 156.559C1345.68 156.545 1345.69 156.532 1345.69 156.519C1345.7 156.505 1345.71 156.492 1345.71 156.479C1345.72 156.466 1345.72 156.452 1345.73 156.439C1345.73 156.426 1345.74 156.412 1345.75 156.399C1345.75 156.386 1345.76 156.373 1345.76 156.359C1345.77 156.346 1345.77 156.333 1345.78 156.32C1345.79 156.306 1345.79 156.293 1345.8 156.28C1345.8 156.266 1345.81 156.253 1345.82 156.24C1345.82 156.227 1345.83 156.213 1345.83 156.2C1345.84 156.187 1345.84 156.173 1345.85 156.16C1345.86 156.147 1345.86 156.134 1345.87 156.12C1345.87 156.107 1345.88 156.094 1345.88 156.08C1345.89 156.067 1345.9 156.054 1345.9 156.041C1345.91 156.027 1345.91 156.014 1345.92 156.001C1345.92 155.987 1345.93 155.974 1345.94 155.961C1345.94 155.948 1345.95 155.934 1345.95 155.921C1346.01 155.779 1346.03 155.744 1346.09 155.602C1346.15 155.461 1346.17 155.425 1346.23 155.284C1346.29 155.142 1346.3 155.106 1346.37 154.965C1346.43 154.823 1346.44 154.788 1346.5 154.646C1346.56 154.504 1346.58 154.469 1346.64 154.327C1346.7 154.186 1346.72 154.15 1346.78 154.009C1346.84 153.867 1346.85 153.831 1346.92 153.69C1346.98 153.548 1346.99 153.513 1347.05 153.371C1347.11 153.229 1347.13 153.194 1347.19 153.052C1347.25 152.911 1347.27 152.875 1347.33 152.734C1347.39 152.592 1347.4 152.556 1347.47 152.415C1347.53 152.273 1347.54 152.238 1347.6 152.096C1347.66 151.954 1347.68 151.919 1347.74 151.777C1347.8 151.636 1347.82 151.6 1347.88 151.459C1347.94 151.317 1347.95 151.281 1348.02 151.14C1348.08 150.998 1348.09 150.963 1348.15 150.821C1348.21 150.679 1348.23 150.644 1348.29 150.502C1348.35 150.361 1348.37 150.325 1348.43 150.184C1348.49 150.042 1348.5 150.006 1348.57 149.865C1348.63 149.723 1348.64 149.688 1348.7 149.546C1348.76 149.404 1348.78 149.369 1348.84 149.227C1348.9 149.086 1348.92 149.05 1348.98 148.909C1349.04 148.767 1349.05 148.731 1349.12 148.59C1349.18 148.448 1349.19 148.413 1349.25 148.271C1349.31 148.129 1349.33 148.094 1349.39 147.952C1349.45 147.811 1349.47 147.775 1349.53 147.634C1349.59 147.492 1349.6 147.456 1349.67 147.315C1349.73 147.173 1349.74 147.138 1349.8 146.996L1347.97 146.204ZM1339.16 166.619C1336.36 173.416 1333.63 179.946 1330.96 186.208L1332.8 186.992C1335.47 180.721 1338.21 174.184 1341.01 167.381L1339.16 166.619ZM1330.97 186.201C1328.3 192.336 1326.03 197.606 1324.16 202.009L1326 202.791C1327.87 198.394 1330.14 193.13 1332.8 186.999L1330.97 186.201ZM1325.08 201.4H1303.28V203.4H1325.08V201.4ZM1304.2 202.009C1302.34 197.606 1300.07 192.336 1297.4 186.201L1295.57 186.999C1298.23 193.13 1300.5 198.394 1302.36 202.791L1304.2 202.009ZM1297.4 186.208C1294.74 179.94 1291.94 173.405 1289 166.604L1287.17 167.396C1290.1 174.195 1292.9 180.727 1295.56 186.992L1297.4 186.208ZM1289.01 166.619C1286.21 159.814 1283.34 153.009 1280.4 146.204L1278.57 146.996C1281.5 153.791 1284.36 160.586 1287.16 167.381L1289.01 166.619ZM1280.4 146.204C1277.47 139.404 1274.8 133.205 1272.4 127.606L1270.57 128.394C1272.97 133.995 1275.63 140.196 1278.57 146.996L1280.4 146.204ZM1270.49 127.918C1269.15 144.064 1268.15 160.078 1267.49 175.958L1269.48 176.042C1270.15 160.189 1271.15 144.203 1272.48 128.082L1270.49 127.918ZM1267.49 175.958C1266.82 191.828 1266.28 206.499 1265.88 219.97L1267.88 220.03C1268.28 206.568 1268.82 191.905 1269.48 176.042L1267.49 175.958ZM1266.88 219H1236.48V221H1266.88V219ZM1237.48 220.049C1238.02 209.117 1238.62 197.452 1239.28 185.054L1237.29 184.946C1236.62 197.348 1236.02 209.016 1235.49 219.951L1237.48 220.049ZM1239.28 185.064C1240.08 172.665 1240.88 160.332 1241.68 148.065L1239.69 147.935C1238.89 160.202 1238.09 172.535 1237.29 184.936L1239.28 185.064ZM1241.68 148.075C1242.61 135.681 1243.61 123.82 1244.68 112.494L1242.69 112.306C1241.62 123.646 1240.62 135.519 1239.69 147.925L1241.68 148.075ZM1244.68 112.504C1245.88 101.048 1247.14 90.7277 1248.47 81.5434L1246.49 81.2566C1245.16 90.4723 1243.89 100.819 1242.69 112.296L1244.68 112.504ZM1247.48 82.4H1277.28V80.4H1247.48V82.4ZM1419.98 81.4V80.4H1418.98V81.4H1419.98ZM1451.18 81.4H1452.18V80.4H1451.18V81.4ZM1451.18 220V221H1452.18V220H1451.18ZM1419.98 220H1418.98V221H1419.98V220ZM1419.98 82.4H1451.18V80.4H1419.98V82.4ZM1450.18 81.4V220H1452.18V81.4H1450.18ZM1451.18 219H1419.98V221H1451.18V219ZM1420.98 220V81.4H1418.98V220H1420.98Z" fill="#A9A9A9"/>
</g>
<defs>
<clipPath id="clip0_357_712">
<rect width="1440" height="232" fill="white"/>
</clipPath>
</defs>
</svg>
